<?xml version="1.0" encoding="UTF-8" standalone="no"?>
<!-- Created with Inkscape (http://www.inkscape.org/) -->

<svg
   width="210mm"
   height="297mm"
   viewBox="0 0 210 297"
   version="1.1"
   id="svg5"
   sodipodi:docname="drawing_HIPP_colored.svg"
   inkscape:version="1.1.1 (3bf5ae0d25, 2021-09-20)"
   inkscape:export-filename="/home/nikos/Documents/projects/Python/memstim-hh/drawing_HIPP_scaled.png"
   inkscape:export-xdpi="195.02647"
   inkscape:export-ydpi="195.02647"
   xmlns:inkscape="http://www.inkscape.org/namespaces/inkscape"
   xmlns:sodipodi="http://sodipodi.sourceforge.net/DTD/sodipodi-0.dtd"
   xmlns="http://www.w3.org/2000/svg"
   xmlns:svg="http://www.w3.org/2000/svg">
  <sodipodi:namedview
     id="namedview7"
     pagecolor="#ffffff"
     bordercolor="#666666"
     borderopacity="1.0"
     inkscape:pageshadow="2"
     inkscape:pageopacity="0.0"
     inkscape:pagecheckerboard="0"
     inkscape:document-units="mm"
     showgrid="false"
     inkscape:zoom="0.5"
     inkscape:cx="59"
     inkscape:cy="501"
     inkscape:window-width="1920"
     inkscape:window-height="1016"
     inkscape:window-x="1440"
     inkscape:window-y="1507"
     inkscape:window-maximized="1"
     inkscape:current-layer="layer3" />
  <defs
     id="defs2">
    <inkscape:path-effect
       effect="bspline"
       id="path-effect2299"
       is_visible="true"
       lpeversion="1"
       weight="33.333333"
       steps="2"
       helper_size="0"
       apply_no_weight="true"
       apply_with_weight="true"
       only_selected="false" />
    <inkscape:path-effect
       effect="bspline"
       id="path-effect2262"
       is_visible="true"
       lpeversion="1"
       weight="33.333333"
       steps="2"
       helper_size="0"
       apply_no_weight="true"
       apply_with_weight="true"
       only_selected="false" />
    <inkscape:path-effect
       effect="bspline"
       id="path-effect2225"
       is_visible="true"
       lpeversion="1"
       weight="33.333333"
       steps="2"
       helper_size="0"
       apply_no_weight="true"
       apply_with_weight="true"
       only_selected="false" />
    <inkscape:path-effect
       effect="bspline"
       id="path-effect2188"
       is_visible="true"
       lpeversion="1"
       weight="33.333333"
       steps="2"
       helper_size="0"
       apply_no_weight="true"
       apply_with_weight="true"
       only_selected="false" />
    <inkscape:path-effect
       effect="bspline"
       id="path-effect2151"
       is_visible="true"
       lpeversion="1"
       weight="33.333333"
       steps="2"
       helper_size="0"
       apply_no_weight="true"
       apply_with_weight="true"
       only_selected="false" />
    <inkscape:path-effect
       effect="bspline"
       id="path-effect2147"
       is_visible="true"
       lpeversion="1"
       weight="33.333333"
       steps="2"
       helper_size="0"
       apply_no_weight="true"
       apply_with_weight="true"
       only_selected="false" />
    <inkscape:path-effect
       effect="bspline"
       id="path-effect2110"
       is_visible="true"
       lpeversion="1"
       weight="33.333333"
       steps="2"
       helper_size="0"
       apply_no_weight="true"
       apply_with_weight="true"
       only_selected="false" />
    <inkscape:path-effect
       effect="bspline"
       id="path-effect1833"
       is_visible="true"
       lpeversion="1"
       weight="33.333333"
       steps="2"
       helper_size="0"
       apply_no_weight="true"
       apply_with_weight="true"
       only_selected="false" />
    <inkscape:path-effect
       effect="bspline"
       id="path-effect1829"
       is_visible="true"
       lpeversion="1"
       weight="33.333333"
       steps="2"
       helper_size="0"
       apply_no_weight="true"
       apply_with_weight="true"
       only_selected="false" />
    <inkscape:path-effect
       effect="bspline"
       id="path-effect1825"
       is_visible="true"
       lpeversion="1"
       weight="33.333333"
       steps="2"
       helper_size="0"
       apply_no_weight="true"
       apply_with_weight="true"
       only_selected="false" />
    <inkscape:path-effect
       effect="bspline"
       id="path-effect1821"
       is_visible="true"
       lpeversion="1"
       weight="33.333333"
       steps="2"
       helper_size="0"
       apply_no_weight="true"
       apply_with_weight="true"
       only_selected="false" />
    <inkscape:path-effect
       effect="bspline"
       id="path-effect1817"
       is_visible="true"
       lpeversion="1"
       weight="33.333333"
       steps="2"
       helper_size="0"
       apply_no_weight="true"
       apply_with_weight="true"
       only_selected="false" />
    <inkscape:path-effect
       effect="bspline"
       id="path-effect1813"
       is_visible="true"
       lpeversion="1"
       weight="33.333333"
       steps="2"
       helper_size="0"
       apply_no_weight="true"
       apply_with_weight="true"
       only_selected="false" />
    <inkscape:path-effect
       effect="bspline"
       id="path-effect1809"
       is_visible="true"
       lpeversion="1"
       weight="33.333333"
       steps="2"
       helper_size="0"
       apply_no_weight="true"
       apply_with_weight="true"
       only_selected="false" />
    <inkscape:path-effect
       effect="bspline"
       id="path-effect1805"
       is_visible="true"
       lpeversion="1"
       weight="33.333333"
       steps="2"
       helper_size="0"
       apply_no_weight="true"
       apply_with_weight="true"
       only_selected="false" />
    <inkscape:path-effect
       effect="bspline"
       id="path-effect1768"
       is_visible="true"
       lpeversion="1"
       weight="33.333333"
       steps="2"
       helper_size="0"
       apply_no_weight="true"
       apply_with_weight="true"
       only_selected="false" />
    <inkscape:path-effect
       effect="bspline"
       id="path-effect1764"
       is_visible="true"
       lpeversion="1"
       weight="33.333333"
       steps="2"
       helper_size="0"
       apply_no_weight="true"
       apply_with_weight="true"
       only_selected="false" />
    <inkscape:path-effect
       effect="bspline"
       id="path-effect1760"
       is_visible="true"
       lpeversion="1"
       weight="33.333333"
       steps="2"
       helper_size="0"
       apply_no_weight="true"
       apply_with_weight="true"
       only_selected="false" />
  </defs>
  <g
     inkscape:label="Layer 1"
     inkscape:groupmode="layer"
     id="layer1"
     style="display:none"
     sodipodi:insensitive="true">
    <path
       style="fill:#000000;stroke-width:0.529166"
       d="m 78.999812,157.53579 c -0.69542,-0.6956 -0.98266,-14.34302 -0.3373,-16.02482 0.29144,-0.7595 3.20084,-0.84226 28.833218,-0.82014 31.913,0.0274 30.38716,0.20206 33.29222,-3.80828 3.11068,-4.29414 4.44668,-8.01558 5.0002,-13.92798 0.109,-1.16418 0.43826,-2.7417 0.73172,-3.5056 0.75354,-1.9616 0.88146,-8.79422 0.21174,-11.31108 -0.30978,-1.16416 -0.7193,-3.30728 -0.91006,-4.7625 -0.61722,-4.708657 -2.3782,-9.257977 -4.32212,-11.165817 -3.00044,-2.944738 -4.19144,-3.255398 -11.67954,-3.046578 -8.77536,0.24474 -8.4211,0.65292 -7.5695,-8.72166 0.85776,-9.442098 0.72482,-9.302698 9.06052,-9.501598 12.04722,-0.28748 16.79536,1.31054 23.13292,7.785558 2.1601,2.20694 4.97284,5.61156 6.25054,7.56586 2.71558,4.153558 5.67906,12.607498 6.45252,18.407155 0.29112,2.18282 0.78142,4.92126 1.08956,6.08542 0.35284,1.33304 0.38366,2.70438 0.0832,3.70416 -0.26238,0.87314 -0.72612,3.54576 -1.03058,5.93918 -0.30444,2.3934 -0.77442,4.77466 -1.04438,5.29166 -0.26996,0.517 -0.73188,2.36874 -1.02648,4.115 -1.64798,9.76836 -3.49198,13.7814 -8.64562,18.81518 -3.17054,3.09678 -5.26366,4.58844 -9.28172,6.61458 l -5.188,2.61608 -31.22082,0.159 c -24.447898,0.1244 -31.364338,0.016 -31.882298,-0.5027 z m 60.904878,-1.01232 c 8.18642,-1.4845 18.33708,-9.36152 21.09628,-16.371 1.8106,-4.59966 2.89678,-8.50456 3.59068,-12.90892 0.31616,-2.00668 0.76428,-4.03074 0.99584,-4.49792 0.89174,-1.79912 1.7998,-11.1148 1.23004,-12.61858 -0.30426,-0.80298 -0.70016,-3.08988 -0.8798,-5.08198 -0.1796,-1.9921 -0.69116,-4.61148 -1.13672,-5.820837 -0.44554,-1.20936 -1.01574,-2.9132 -1.2671,-3.78634 -1.97118,-6.847098 -7.03318,-13.954438 -13.47284,-18.916656 -2.8408,-2.18904 -3.89878,-2.6489 -8.21786,-3.57188 -6.0194,-1.28634 -15.39488,-1.46876 -16.5418,-0.32184 -0.40564,0.40564 -1.05488,2.77754 -1.44274,5.270898 -0.57268,3.6813 -0.57816,4.68644 -0.0292,5.34788 0.3742,0.45086 0.43838,0.81452 0.1438,0.81452 -0.6773,0 -1.20746,1.97116 -0.80926,3.00884 0.20036,0.52218 0.7622,0.70236 1.6568,0.53134 0.7445,-0.1424 1.91066,-0.047 2.59146,0.21186 0.70968,0.26984 2.97886,0.2784 5.31844,0.0202 4.54652,-0.50196 6.27194,0.0344 9.41834,2.927758 2.15856,1.98498 4.80786,7.53 4.88934,10.233417 0.014,0.43656 0.31936,2.34156 0.68044,4.23334 0.92532,4.84778 0.98868,12.58108 0.1202,14.66738 -0.38988,0.93654 -0.70888,2.85784 -0.70888,4.26958 0,2.89192 -1.26918,7.64784 -2.57264,9.6403 -1.91232,2.92314 -2.23252,3.47258 -2.5222,4.3277 -0.1658,0.48972 -1.24566,1.5446 -2.3995,2.34422 l -2.0979,1.45384 -28.76766,-0.0476 c -24.959898,-0.0412 -28.807498,0.0562 -29.068638,0.73682 -0.4742,1.23574 0.57882,2.65894 2.18996,2.95982 1.68466,0.31462 9.67712,0.0398 10.0629,-0.34588 0.39634,-0.39636 5.635983,0.28938 6.205663,0.81216 0.41352,0.37946 -2.51506,0.31172 -4.800143,-0.111 -0.25818,-0.0478 -0.58848,-0.0368 -0.734,0.0244 -0.92378,0.38878 -10.09586,0.41634 -11.50938,0.0346 l -1.7198,-0.46446 v 5.46948 c 0,3.89408 0.1906,5.53904 0.66146,5.7109 1.49438,0.54538 56.760338,0.37326 59.846558,-0.1864 z M 99.961535,145.83429 c 0.242865,-0.24284 1.608695,-0.21538 3.035215,0.061 l 2.59368,0.50256 -3.03522,-0.061 c -1.66936,-0.0336 -2.836515,-0.25972 -2.593675,-0.50256 z m 6.951815,0.1874 c 0,-0.1828 2.14312,-0.37844 4.7625,-0.43492 2.61938,-0.0564 4.76232,0.067 4.76208,0.2742 -2.2e-4,0.20728 -2.14334,0.40298 -4.7625,0.4349 -2.61914,0.032 -4.76208,-0.0914 -4.76208,-0.27418 z m 10.23482,0.1236 c 0.44584,-0.44582 10.31748,-0.73812 10.57966,-0.31326 0.1378,0.22314 -2.2441,0.44266 -5.29292,0.4878 -3.04884,0.0452 -5.42786,-0.0334 -5.28674,-0.1746 z m 11.995,-0.33778 c -0.002,-0.23664 1.66098,-0.3557 3.69696,-0.26458 2.03598,0.091 3.70286,0.3474 3.70418,0.56954 0.001,0.22214 -1.66232,0.3412 -3.69696,0.26458 -2.03464,-0.0766 -3.70152,-0.3329 -3.70418,-0.56954 z m 7.93268,0.1656 c 0,-0.29104 0.41672,-0.53094 0.92604,-0.5331 1.43326,-0.006 6.7354,-4.49236 8.55372,-7.23752 0.89802,-1.35574 1.63274,-2.19432 1.63274,-1.86348 0,0.97494 -3.05086,5.49822 -4.13888,6.13642 -0.55064,0.323 -2.02352,1.36118 -3.27304,2.30706 -2.27642,1.72324 -3.70058,2.18144 -3.70058,1.19062 z m 11.1125,-10.9657 c 0,-0.66582 1.51256,-1.98564 1.86812,-1.63008 0.1402,0.1402 -0.22268,0.68736 -0.80654,1.21576 -0.58386,0.5284 -1.06158,0.71484 -1.06158,0.41432 z m 1.05834,-2.95138 c 0,-0.37836 0.22384,-0.91414 0.49744,-1.19062 0.27358,-0.2765 0.74236,-1.69334 1.0417,-3.14854 l 0.54428,-2.64584 -0.28198,2.89718 c -0.1552,1.59346 -0.50274,3.16318 -0.77254,3.48828 -0.2698,0.3251 -0.33386,0.74776 -0.1424,0.93926 0.1916,0.1916 0.0704,0.3482 -0.26918,0.3482 -0.33954,0 -0.61736,-0.30956 -0.61736,-0.68792 z m 1.92274,-8.9514 c 0.21872,-0.35392 0.56258,-1.48502 0.76412,-2.51354 l 0.36642,-1.87006 0.0608,1.67652 c 0.0714,1.9675 -0.37658,3.35056 -1.08532,3.35056 -0.27708,0 -0.32482,-0.28956 -0.106,-0.64348 z m 0.7515,-5.17736 c -0.008,-0.43656 0.3485,-1.83178 0.79036,-3.1005 0.44184,-1.26874 0.651,-2.78682 0.46476,-3.37356 -0.24046,-0.75764 -0.1522,-0.95166 0.30428,-0.66948 0.41846,0.2586 0.53256,1.08714 0.32686,2.37348 -0.35026,2.19048 -1.86572,6.02284 -1.88626,4.77006 z m 0.60824,-9.66006 c -0.6863,-0.82694 -0.68292,-4.18932 0.004,-3.76492 0.26422,0.1632 0.41416,0.80994 0.3332,1.43698 -0.081,0.62706 0.0478,1.4536 0.28632,1.83676 0.59156,0.95062 0.0876,1.34776 -0.6233,0.49118 z m -0.90124,-5.68576 c -0.1986,-0.62596 -0.24214,-1.25716 -0.0966,-1.40268 0.1456,-0.1456 0.42712,0.24756 0.6258,0.8735 0.1986,0.62596 0.24214,1.25716 0.0966,1.40268 -0.1456,0.1456 -0.42712,-0.24756 -0.6258,-0.8735 z m -0.75196,-2.954517 c 0.0254,-0.61644 0.1508,-0.74184 0.3197,-0.3197 0.1528,0.38198 0.134,0.838397 -0.0418,1.014237 -0.1758,0.1758 -0.3009,-0.1366 -0.27792,-0.694537 z m -1.3128,-3.5522 c -0.55354,-1.2235 -1.319,-3.05798 -1.70104,-4.07662 -0.71186,-1.89808 -5.13604,-6.349998 -6.31044,-6.349998 -0.69182,0 -3.42434,-2.0689 -2.77234,-2.09906 0.86258,-0.0398 4.86154,2.36954 6.75728,4.07138 1.11796,1.00362 2.32216,2.577738 2.67602,3.498078 0.35384,0.92034 1.10888,2.68368 1.67782,3.91852 0.56894,1.23482 0.9545,2.47398 0.8568,2.75368 -0.0978,0.2797 -0.63056,-0.4925 -1.1841,-1.71598 z M 136.01753,83.580995 c 0,-0.2638 0.47624,-0.35508 1.05832,-0.20286 0.58208,0.1522 1.05834,0.36804 1.05834,0.47962 0,0.1116 -0.47626,0.20286 -1.05834,0.20286 -0.58208,0 -1.05832,-0.21582 -1.05832,-0.47962 z m -3.8034,-0.41102 c 0.382,-0.1528 0.8384,-0.134 1.01424,0.0418 0.1758,0.1758 -0.1368,0.30092 -0.69452,0.27794 -0.61646,-0.0254 -0.74184,-0.1508 -0.31972,-0.3197 z m -42.763278,-1.25196 c -0.7276,-0.2435 -2.75166,-0.84164 -4.49792,-1.32922 -1.74624,-0.48756 -3.65644,-1.1854 -4.24488,-1.55074 -0.58844,-0.36534 -2.05476,-0.83064 -3.25848,-1.034 -1.20374,-0.20338 -2.62728,-0.70216 -3.16346,-1.108418 -0.53616,-0.40626 -1.65322,-0.74622 -2.48236,-0.75548 -2.36622,-0.0264 -5.00844,-1.54922 -7.99414,-4.60728 -1.51316,-1.54984 -3.1283,-2.8179 -3.5892,-2.8179 -0.80766,0 -3.57788,-2.83366 -3.57788,-3.65982 0,-0.222 -0.56426,-0.66072 -1.25392,-0.97494 -0.81198,-0.36998 -2.07086,-2.2183 -3.57188,-5.24432 -1.27488,-2.57014 -2.4706,-4.79206 -2.65716,-4.93758 -0.63678,-0.4967 -4.15872,-8.54124 -4.15872,-9.49902 0,-0.52528 -0.35726,-1.81014 -0.79394,-2.85522 -0.64156,-1.53548 -0.69166,-2.58888 -0.26102,-5.48858 0.2931,-1.97364 0.6901,-4.65418 0.88222,-5.95678 0.1922,-1.3026 0.83022,-3.2076 1.41796,-4.23334 1.18192,-2.06264 4.02618,-5.915521 4.7421,-6.423701 0.25212,-0.179 0.73452,-0.8568 1.072,-1.5063 0.33748,-0.6495 1.92328,-1.8916 3.52402,-2.76022 1.60072,-0.86862 3.50572,-1.96528 4.23334,-2.437 2.15112,-1.39464 5.4264,-3.2297181 7.3747,-4.1319181 1.00016,-0.46314 2.57044,-1.41564 3.48954,-2.11666 0.91908,-0.70102 2.00118,-1.27458 2.40464,-1.27458 0.40346,0 1.9288,-0.4603 3.38964,-1.02288 4.84926,-1.86752 10.06606,-3.26720005 12.1953,-3.27204005 1.15634,-0.002 6.429523,-0.12820003 11.718178,-0.27902003 8.94002,-0.25494 9.65142,-0.20614 10.1233,0.69464008 0.27916,0.53288 0.47644,3.66706 0.43842,6.96484 -0.079,6.8581581 -0.44526,7.4977781 -4.29244,7.4977781 -3.2467,0 -7.518835,1.27078 -13.948258,4.149 -5.49024,2.457781 -6.629254,3.245307 -12.05504,8.334981 -2.2361,2.09758 -2.66568,3.41896 -0.71558,2.2011 0.72338,-0.451759 1.15192,-0.43782 1.74792,0.0568 0.53466,0.44372 0.90034,0.47616 1.13254,0.1004 9.146599,2.402914 2.514752,16.940292 -3.9652,16.90774 l 1.9908,2.14682 c 2.33906,2.52238 8.5571,7.1872 10.61048,7.96006 0.78896,0.29696 2.625103,1.0913 4.080303,1.76522 1.4552,0.6739 4.1905,1.8679 6.078415,2.6533 3.38828,1.4096 4.21636,2.058 4.23222,3.3139 0.004,0.35274 -1.72922,2.734 -3.85262,5.29166 -2.123395,2.55766 -4.861455,5.98112 -6.084575,7.607678 -1.77308,2.35794 -4.358423,4.48134 -5.028543,4.13008 -0.059,-0.031 -0.70272,-0.25552 -1.43032,-0.49902 z m 3.05726,-1.85596 c 1.650883,-1.1563 1.463923,-2.22232 -0.54372,-3.100298 -0.94588,-0.41366 -1.3626,-0.77006 -0.92604,-0.79202 0.43656,-0.022 1.41058,0.28198 2.1645,0.6754 1.324503,0.691138 1.451203,0.615138 3.754803,-2.25222 1.31122,-1.63214 3.624595,-4.44692 5.140855,-6.25508 l 2.75682,-3.28756 -3.33662,-1.54818 c -1.835135,-0.8515 -5.568975,-2.5362 -8.297458,-3.7438 -5.38512,-2.38338 -10.08444,-5.66402 -13.82456,-9.65102 l -2.38126,-2.53842 -14.2875,-0.1104 c -7.85812,-0.0608 -14.36932,0.0626 -14.46932,0.27414 -0.2958,0.62568 1.34398,4.31526 2.25326,5.0699 0.46144,0.38296 0.83898,1.04902 0.83898,1.48014 0,1.6577 3.74926,7.88084 5.29978,8.79676 0.86866,0.51312 1.5794,1.20182 1.5794,1.5304 0,0.96376 2.21836,3.0469 3.24468,3.0469 0.51894,0 1.60852,0.83492 2.4213,1.8554 2.23786,2.80972 5.8285,5.189 7.7485,5.13442 0.90486,-0.0258 2.39252,0.4151 3.30594,0.97962 0.9134,0.56452 2.41618,1.02638 3.3395,1.02638 0.92332,0 2.32396,0.476558 3.11254,1.058998 0.78858,0.58246 3.06488,1.39996 5.05844,1.81668 1.99356,0.41672 3.75966,0.89266 3.92466,1.05766 0.4631,0.4631 0.84982,0.36768 2.12252,-0.52376 z m -5.70308,-4.747578 c -2.37232,-0.67494 -8.1255,-2.59542 -10.51944,-3.5115 -0.69244,-0.26498 -1.153,-0.58778 -1.02342,-0.71736 0.2399,-0.2399 1.21996,0.0516 7.30952,2.17334 1.89176,0.65918 4.21076,1.35352 5.1533,1.54298 0.94256,0.1894 1.84958,0.56428 2.01562,0.83294 0.35926,0.5813 0.1556,0.55908 -2.93558,-0.3204 z m -14.81668,-5.05008 c -0.7276,-0.59012 -2.15634,-1.6633 -3.175,-2.38482 -4.6585,-3.29966 -5.52772,-4.0792 -8.48332,-7.60806 -1.72986,-2.06538 -3.2932,-4.34496 -3.4741,-5.06574 -0.181,-0.72076 -1.0173,-1.88974 -1.85866,-2.5977 -1.64066,-1.3805 -1.89214,-2.12742 -0.91882,-2.72896 0.38034,-0.23506 0.46722,-0.145 0.23014,0.23854 -0.22276,0.36044 0.2923,1.18246 1.24116,1.98088 0.89206,0.75064 1.62194,1.6746 1.62194,2.05328 0,0.8209 3.98594,6.23642 6.23988,8.47784 0.878,0.87312 2.51212,2.26042 3.63136,3.08288 1.11926,0.82244 3.30908,2.4298 4.86626,3.57186 1.5572,1.14208 2.5097,2.0712 2.11668,2.06474 -0.39304,-0.006 -1.30992,-0.4946 -2.03752,-1.08474 z m -18.52082,-21.6889 c 0,-0.30822 0.23812,-0.41322 0.52916,-0.23334 0.29104,0.1798 0.52916,0.43204 0.52916,0.5604 0,0.1284 -0.23812,0.23334 -0.52916,0.23334 -0.29104,0 -0.52916,-0.25218 -0.52916,-0.5604 z m -3.64822,-2.54218 c 0.35152,0.55484 0.45888,0.56436 0.4651,0.0412 0.006,-0.5159 0.26362,-0.54334 1.06644,-0.1136 0.84472,0.45208 1.05834,0.40242 1.05834,-0.24596 -0.06279,-0.974016 1.554165,-1.008138 1.5875,-0.2832 0,0.29104 0.35718,0.52916 0.79374,0.52916 0.43658,0 0.79376,-0.23812 0.79376,-0.52916 0.391353,-0.914182 1.566372,-0.416606 1.5875,0.32544 0,0.7845 0.108,0.78382 1.31688,-0.008 1.09558,-0.71786 1.5074,-0.75032 2.4504,-0.1932 0.90448,0.5344 1.1819,0.53606 1.37304,0.008 0.2762,-0.76266 1.73884,-0.90558 1.73884,-0.1698 2.418872,1.139039 4.274342,-0.908668 6.1376,0.06208 1.12274,0.59816 1.49332,0.62216 1.66602,0.1078 0.26336,-0.78442 1.72138,-0.89646 1.72138,-0.1322 0,0.29104 0.3572,0.52916 0.79376,0.52916 0.43656,0 0.79374,-0.23812 0.79374,-0.52916 0.192162,-0.753741 1.559146,-0.616601 1.5875,0 0,0.76318 1.45464,0.65252 1.73886,-0.1322 0.1878,-0.51836 0.50688,-0.50276 1.47526,0.072 0.87942,0.52202 1.29354,0.56018 1.43616,0.1324 4.918734,-1.949939 6.693689,-12.915661 -0.48582,-13.0574 -16.03992,-0.31642 -33.25216,-0.31678 -33.7636,-6.8e-4 -0.4669,0.28856 -0.46582,0.56014 0.004,1.12684 0.47344,0.57044 0.47344,0.92282 0,1.49328 -0.36212,0.43632 -0.4154,0.87286 -0.1282,1.05036 0.57262,0.3539 0.50552,6.62922 -0.081,7.5764 -0.23236,0.37522 0.0916,1.13138 0.7792,1.819 0.8407,0.84072 1.24238,0.98028 1.40626,0.4886 0.1846,-0.55376 0.31874,-0.54728 0.68644,0.033 z m 3.38362,-12.77238 c -35.468621,-22.173958 -17.734311,-11.086979 0,0 z m 3.175,0 c -37.585288,-22.173958 -18.792644,-11.086979 0,0 z m 6.87918,0 c -42.171408,-22.173958 -21.085704,-11.086979 0,0 z m 5.95312,0.10074 c -46.140155,-22.241118 -23.070077,-11.120559 0,0 z m 3.57188,-0.10074 c -48.521408,-22.173958 -24.260704,-11.086979 0,0 z m 3.175,0 c -50.638075,-22.173958 -25.319037,-11.086979 0,0 z m 3.30728,0.10074 c -52.842928,-22.241118 -26.421464,-11.120559 0,0 z m 3.3073,-0.10074 c -55.047795,-22.173958 -27.523897,-11.086979 0,0 z m -36.24218,5.23916 c 0.062,-2.46734 -0.61304,-3.25588 -1.10592,-1.29204 -0.37306,1.4864 0.1566,4.31656 0.70522,3.76798 0.191,-0.191 0.37134,-1.30518 0.4007,-2.47594 z m 0.25884,-3.885 c 0,-0.1284 -0.23812,-0.38054 -0.52916,-0.5604 -0.29104,-0.1798 -0.52916,-0.0748 -0.52916,0.23334 0,0.30822 0.23812,0.5604 0.52916,0.5604 0.29104,0 0.52916,-0.105 0.52916,-0.23334 z m 2.4305,-3.88126 c 1.25222,0.57054 2.86118,-0.1312 2.86118,-1.24784 0,-1.74488 9.0406,-12.100061 10.56396,-12.100061 0.29144,0 2.02236,-0.90904 3.8465,-2.02008 5.71854,-3.48304 12.72612,-6.8252781 15.75204,-7.5128181 1.60072,-0.36372 3.56526,-0.9931 4.36562,-1.39862 0.80036,-0.40552 1.4552,-0.52196 1.4552,-0.25876 0,0.2632 -0.65484,0.71234 -1.4552,0.9981 -2.99306,1.0686 -5.25642,1.72552 -5.94512,1.72552 -0.88868,0 -9.15496,4.2186381 -13.61336,6.9474781 -1.84064,1.1266 -3.58508,2.04836 -3.87652,2.04836 -1.45014,0 -9.50562,8.991261 -9.50562,10.609861 0,0.27644 -0.23814,0.50264 -0.52918,0.50264 -0.29104,0 -0.52916,0.47624 -0.52916,1.05832 0,1.20496 0.54934,1.35566 1.49488,0.41012 0.5115,-0.51148 0.88358,-0.5012 1.76424,0.0488 0.92602,0.57832 1.19132,0.57606 1.55816,-0.014 0.35926,-0.57718 0.6434,-0.58548 1.51658,-0.0444 0.86344,0.53514 1.2855,0.53514 2.14896,0 0.87318,-0.54118 1.1573,-0.53288 1.51658,0.0444 0.36986,0.5942 0.62922,0.5942 1.5875,0 0.9745,-0.60428 1.22194,-0.59182 1.65842,0.0836 0.45602,0.70554 0.57002,0.70554 1.02604,0 0.42414,-0.65624 0.69918,-0.67838 1.5875,-0.1278 0.86344,0.53514 1.2855,0.53514 2.14896,0 0.87318,-0.54118 1.1573,-0.53288 1.51658,0.0444 0.36986,0.5942 0.63788,0.5942 1.64048,0 0.94506,-0.5601 1.24904,-0.5704 1.43794,-0.0488 0.1318,0.3638 0.3983,0.6601 0.59232,0.65842 0.194,-0.0017 2.50778,-2.10006 5.14168,-4.66308 3.54078,-3.44548 5.74742,-5.11234 8.46666,-6.395541 6.104203,-2.88054 11.859418,-4.82836 15.268238,-5.16742 4.99382,-0.49674 5.07828,-0.58798 5.07828,-5.4853781 0,-2.92532 -0.1942,-4.2147 -0.635,-4.2147 -0.49388,0 -0.49388,-0.1412 0,-0.635 0.34924,-0.34926 0.635,-1.1946 0.635,-1.87854 0,-1.24324 -0.002,-1.2435 -6.4823,-1.13956 -3.565255,0.0572 -7.672915,0.3141 -9.128115,0.57096 -1.455203,0.25684 -4.193643,0.5473 -6.085423,0.64546 -4.23914,0.21996 -13.9614,3.35794 -17.34254,5.59752 -1.32994,0.8809 -2.63814,1.6016601 -2.90712,1.6016601 -0.26898,0 -1.24018,0.535279 -2.15824,1.189518 -1.98262,1.41292 -4.48412,2.86438 -5.77022,3.3481 -0.50932,0.1916 -0.92604,0.55866 -0.92604,0.81576 0,0.2571 -0.36052,0.46744 -0.80118,0.46744 -1.24302,0 -4.37812,2.24742 -4.98266,3.57188 -0.29892,0.65484 -0.7867,1.19062 -1.08398,1.19062 -0.29728,0 -0.54052,0.357201 -0.54052,0.793761 0,0.43656 -0.1876,0.79374 -0.41694,0.79374 -0.2293,0 -1.40814,1.50764 -2.61962,3.35032 -1.56542,2.38098 -2.11324,3.69246 -1.89346,4.53288 0.20382,0.77942 0.48762,1.0042 0.83246,0.65936 0.34484,-0.34484 0.94676,-0.33024 1.76556,0.0428 z M 88.739892,6.4057379 c -0.1344,-0.21828 0.50646,-0.43702 1.42398,-0.4861 1.35242,-0.0724 1.46788,-0.004 0.6099,0.35968 -1.37882,0.58484 -1.738,0.60716 -2.03388,0.1264 z m 4.41514,-0.68252 c 1.644583,-0.71554 6.879168,-1.02138 6.879168,-0.4019 0,0.25086 -0.773905,0.41998 -1.719805,0.37584 -0.94588,-0.0442 -2.79134,0.0732 -4.10104,0.26068 -1.993843,0.2855 -2.166023,0.24732 -1.058323,-0.23462 z M 130.99715,57.209717 c -1.16048,-0.1182 -2.37654,-0.4363 -2.70238,-0.70672 -0.32582,-0.2704 -1.34732,-0.34066 -2.27002,-0.1562 -1.15994,0.23198 -1.95972,0.0802 -2.5918,-0.49182 -0.5028,-0.45502 -2.22274,-0.99472 -3.8221,-1.1993 -1.59936,-0.2046 -3.55092,-0.6968 -4.33684,-1.09378 -0.78592,-0.39698 -2.26014,-0.7218 -3.27606,-0.7218 -1.01592,0 -1.9943,-0.23812 -2.17418,-0.52916 -0.1798,-0.29104 -0.77574,-0.52916 -1.32414,-0.52916 -0.5484,0 -1.31662,-0.45618 -1.70714,-1.01374 -0.39054,-0.55756 -1.53514,-1.22648 -2.54356,-1.48648 -1.2701,-0.3275 -1.8839,-0.81718 -1.99754,-1.59368 -0.0902,-0.6165 -0.50696,-1.40548 -0.92606,-1.7533 -0.41908,-0.34782 -0.76198,-1.0521 -0.76198,-1.56508 0,-0.51296 -0.595295,-1.32274 -1.322915,-1.79948 -0.92074,-0.60328 -1.3229,-1.34572 -1.3229,-2.4421 0,-0.86642 -0.1802,-1.5753 -0.40034,-1.5753 -0.22018,0 -0.70372,-0.97214 -1.07454,-2.16028 -0.60866,-1.95024 -0.56718,-2.33344 0.4266,-3.94142 0.60544,-0.97964 1.56524,-1.92858 2.13288,-2.10874 0.56762,-0.1802 1.032065,-0.668 1.032065,-1.08412 0,-0.9869 3.62385,-4.99294 4.51659,-4.99294 0.9624,0 4.12702,-1.71514 4.63782,-2.51356 0.23274,-0.3638 0.89002,-0.66144 1.46064,-0.66144 0.94036,0 5.18582,2.6291 7.5089,4.65008 1.133,0.98566 1.20338,2.92766 0.1382,3.81174 -1.4267,1.18404 -0.23056,1.63602 1.35042,0.51028 1.07216,-0.76346 1.45546,-0.86398 1.24968,-0.3277 -0.4743,1.23602 0.73254,1.55728 1.46204,0.38918 0.66058,-1.05776 0.66738,-1.0575 1.86938,0.0718 0.66352,0.62334 1.2064,0.8537 1.2064,0.51194 0,-0.76138 1.95778,-0.83346 2.2085,-0.0814 0.1164,0.34912 0.70464,0.30234 1.66374,-0.1322 1.297,-0.58776 1.45474,-0.90544 1.25358,-2.52446 -0.29126,-2.3441 -2.49456,-8.466661 -3.04688,-8.466661 -0.22872,0 -0.73052,-0.30658 -1.1151,-0.68128 -1.4861,-1.44786 -4.5573,-2.97334 -8.19818,-4.07212 -2.08712,-0.62986 -3.93348,-1.50666 -4.103,-1.94844 -0.45296,-1.18038 1.17782,-7.0513581 2.51148,-9.0416781 1.41174,-2.1068 2.77732,-2.61826 4.01066,-1.5021 0.51138,0.4628 1.65578,0.84144 2.54312,0.84144 0.88732,0 1.89706,0.34188 2.24384,0.75974 0.3468,0.41786 1.28586,0.90366 2.0868,1.07958 0.80096,0.176 2.18514,0.98556 3.07596,1.7992 0.89082,0.81364 2.73396,2.13236 4.09588,2.9305 1.36192,0.7981391 2.60544,1.8492781 2.76338,2.3358581 0.26258,0.80888 1.81542,4.31712 2.90634,6.56606 0.24514,0.50538 0.44572,1.65214 0.44572,2.548341 0,0.8962 0.22826,2.056 0.50726,2.5773 0.279,0.52132 0.57666,2.17152 0.66146,3.66712 0.0924,1.62924 0.40166,2.72018 0.77156,2.72154 0.33954,0.0013 0.71752,0.29992 0.83998,0.66372 0.1652,0.49102 0.41524,0.5107 0.97014,0.0764 0.41112,-0.32178 1.3021,-0.72112 1.97994,-0.88744 0.96684,-0.23724 1.16378,-0.1236 0.91392,0.52758 -0.26804,0.69852 -0.1874,0.72126 0.50862,0.1436 0.72466,-0.60142 0.5787,-0.82536 -1.1785,-1.80792 -2.40074,-1.3424 -2.7729,-2.9588 -1.36646,-5.93508 0.95298,-2.016681 0.9953,-2.038261 3.86634,-1.97246 5.36992,0.123 9.20788,1.53888 9.85734,3.63632 0.1804,0.5828 1.1697,1.81512 2.19828,2.73846 l 1.87018,1.67882 -0.90912,2.38054 c -0.50004,1.3093 -1.2538,2.66658 -1.67504,3.01618 -0.42126,0.34962 -0.7659,1.15418 -0.7659,1.78794 0,0.63376 -0.28674,1.43902 -0.63718,1.78946 -0.35046,0.35046 -0.58336,1.43616 -0.5176,2.4127 0.072,1.06896 -0.2009,2.04148 -0.68574,2.44386 -0.44292,0.3676 -0.80532,1.2404 -0.80532,1.93958 0,0.86906 -0.4185,1.43034 -1.32292,1.7742 -0.7276,0.27662 -1.32292,0.86604 -1.32292,1.3098 0,0.44378 -0.21036,0.80686 -0.46744,0.80686 -0.2571,0 -0.59124,0.47338 -0.74254,1.05196 -0.1514,0.57858 -0.89346,1.28706 -1.64922,1.5744 -0.75578,0.28734 -1.37412,0.76098 -1.37412,1.0525 0,0.92024 -2.27678,2.07052 -5.82806,2.94448 -1.8878,0.46458 -4.20896,1.24404 -5.15814,1.73214 -1.39704,0.71842 -1.92154,0.7652 -2.75358,0.24558 -0.64772,-0.4045 -1.1463,-0.4502 -1.34818,-0.1236 -0.1762,0.28508 -0.723,0.4783 -1.21516,0.42938 -0.49214,-0.049 -1.84428,-0.1858 -3.00476,-0.30402 z m 3.69746,-1.7237 c 0.46376,-0.75038 2.25036,-0.65722 2.51312,0.131 0.1678,0.50358 0.64906,0.45296 2.02848,-0.21346 0.99462,-0.4805 3.11808,-1.1611 4.71882,-1.51242 3.7778,-0.82914 5.47214,-1.8912 5.12638,-3.21334 -0.1458,-0.55778 -0.0764,-0.89752 0.1542,-0.75498 -23.38658,-17.373802 -25.05389,-6.818906 -25.5936,-17.4769 -0.0528,-1.88632 -9.5903,-0.91356 -8.58728,-1.37054 0.6646,-0.30282 1.63436,-1.27174 2.15504,-2.15318 0.94482,-1.59944 0.94376,-1.60496 -0.53262,-2.78218 -0.81362,-0.64876 -2.53428,-1.73922 -3.8237,-2.42326 -2.15628,-1.1439 -2.38464,-1.1718 -2.8458,-0.34774 -0.27576,0.49278 -0.93666,0.89598 -1.46864,0.89598 -0.53198,0 -1.26628,0.36032 -1.6318,0.80072 -0.3655,0.44042 -0.9383,0.73806 -1.27286,0.66146 -0.67544,-0.1546 -4.54216,3.5033 -4.54216,4.2969 0,0.2765 0.1786,0.6026 0.39686,0.72466 0.21828,0.122 0.0728,0.1392 -0.3235,0.038 -0.4359,-0.1112 -0.60826,0.1084 -0.43646,0.556 0.1938,0.50512 -0.012,0.66252 -0.64835,0.49606 -1.382905,-0.36162 -2.758805,2.01758 -2.349685,4.06312 0.49168,2.45838 1.96002,1.91388 2.00398,-0.74314 0.0222,-1.34588 0.311745,-2.16202 0.827975,-2.33436 0.62398,-0.2083 0.6645,-0.105 0.1894,0.48254 -0.840635,1.03984 -0.66657,5.24544 0.21708,5.24544 0.37896,0 1.25764,0.37256 1.9526,0.8279 1.53526,1.00596 2.33718,4.59122 1.30506,5.83484 -0.36758,0.44292 -0.44944,0.76366 -0.1818,0.71278 1.23436,-0.23478 1.95332,0.1722 0.8521,0.48242 -1.8273,0.51466 -1.43692,1.38006 0.70746,1.56824 1.44736,0.127 2.0064,0.47466 2.39132,1.48706 0.27628,0.7267 0.75134,1.16738 1.05568,0.97928 0.30434,-0.188 0.84056,-0.1066 1.19162,0.1812 1.09466,0.8971 3.2841,0.9778 3.2841,0.121 0,-0.42344 -0.5953,-0.93548 -1.3229,-1.13788 -1.31288,-0.36518 -1.3115,-0.36838 0.1818,-0.42072 1.09126,-0.0382 1.58168,0.24144 1.78474,1.0179 0.2555,0.97702 0.3362,0.99378 0.92272,0.1916 0.5242,-0.71686 1.01712,-0.79046 2.6725,-0.39896 1.11636,0.264 2.14632,0.8326 2.28878,1.26354 0.20078,0.60732 0.091,0.65196 -0.48848,0.1984 -1.10432,-0.86428 -2.91116,-1.19942 -3.73164,-0.69216 -1.3017,0.8048 0.73084,2.09846 3.6875,2.347 2.7636,0.23232 3.51116,-0.30126 1.81018,-1.292 -0.8775,-0.5111 -0.87662,-0.54022 0.018,-0.55546 0.5187,-0.008 1.13432,0.50088 1.36806,1.13272 0.2816,0.76122 0.55418,0.93974 0.80794,0.52916 0.54196,-0.87694 2.2129,-0.76828 3.18852,0.20732 0.74984,0.74984 0.93708,0.74984 2.00762,0 1.52494,-1.0681 6.67044,-1.08968 8.6899,-0.0364 1.35356,0.70594 1.39168,0.79084 0.3563,0.79376 -0.63766,0.0016 -1.3198,-0.25628 -1.51584,-0.5735 -0.2212,-0.3579 -1.55096,-0.48568 -3.50446,-0.33676 -5.75178,0.43848 -5.41682,2.59286 0.45992,2.95812 0.63768,0.0396 1.30656,-0.166 1.48644,-0.4571 z m 5.55624,-3.175 c 0.7276,-0.56914 2.05132,-1.04008 2.94158,-1.04656 0.89026,-0.006 2.08088,-0.36138 2.64582,-0.7887 0.56496,-0.4273 1.38438,-0.78292 1.82094,-0.79026 0.43656,-0.008 0.0794,0.45978 -0.79376,1.03802 -0.87312,0.57826 -2.1828,1.06136 -2.9104,1.0736 -0.72762,0.012 -1.91824,0.36256 -2.64584,0.77848 -1.93014,1.10338 -2.59476,0.93722 -1.05834,-0.26458 z m -30.12072,-3.48368 c 0.0254,-0.61644 0.1508,-0.74184 0.3197,-0.3197 0.1528,0.38198 0.134,0.8384 -0.0418,1.01424 -0.1758,0.1758 -0.30092,-0.1366 -0.27794,-0.69454 z m -0.86198,-1.76318 c -0.2765,-0.2664 -1.09802,-0.59116 -1.82562,-0.72168 -1.15058,-0.2064 -1.1073,-0.24672 0.33208,-0.3094 0.91024,-0.0396 1.95142,0.28514 2.31374,0.7217 0.70752,0.8525 0.014,1.11384 -0.8202,0.30938 z m -5.11348,-17.49152 c 0.75852,-0.86444 1.47482,-1.47604 1.59176,-1.3591 0.3553,0.3553 -1.70012,2.89638 -2.3572,2.91418 -0.33754,0.01 0.006,-0.69064 0.76544,-1.55508 z m 3.08248,-2.1219 c 0.61464,-0.24834 1.56714,-1.01982 2.11666,-1.71438 1.0888,-1.37618 2.85122,-2.2753 2.85122,-1.45456 0,0.2819 -0.2535,0.51256 -0.56334,0.51256 -0.30984,0 -1.16444,0.71438 -1.89912,1.5875 -0.75934,0.90242 -1.8293,1.57302 -2.47938,1.55396 l -1.14358,-0.0336 z m 19.25538,26.76898 c 0,-0.93228 -1.60062,-1.57808 -2.26488,-0.91382 -0.27522,0.27522 -0.34042,0.75928 -0.1448,1.07568 0.51542,0.83398 2.40976,0.70674 2.40976,-0.1618 z m 25.99386,-6.037 c 0.24164,-0.65318 0.22236,-1.16336 -0.044,-1.16336 -0.79622,0 -2.16756,1.63976 -1.8292,2.18726 0.48092,0.77814 1.39046,0.28096 1.87316,-1.0239 z m 1.14428,-4.444 c -1.40313,-16.566956 -16.35419,-11.716032 -29.98866,-11.2928 -6.29995,8.829669 33.14392,16.212349 29.98866,11.2928 z m 2.18434,0.44054 c -0.1456,-0.37928 0.193,-1.25476 0.7524,-1.94554 0.76658,-0.9467 0.88174,-1.47256 0.46766,-2.1356 -0.41634,-0.66666 -0.2726,-1.2683 0.59364,-2.48482 0.62864,-0.88284 1.14298,-2.0079 1.14298,-2.50014 0,-0.49222 0.445,-1.52702 0.9889,-2.29956 1.8385,-2.6113 1.80688,-3.40154 -0.20022,-5.00302 -1.01586,-0.81058 -1.84702,-1.8541 -1.84702,-2.31892 0,-1.13038 -1.54458,-2.24282 -3.175,-2.28666 -0.7276,-0.02 -1.9007,-0.35566 -2.6069,-0.74688 -0.85604,-0.47422 -1.7852,-0.56752 -2.7879,-0.27996 -0.82716,0.23724 -1.6451,0.38716 -1.8176,0.33316 -0.1726,-0.054 -0.67104,0.79782 -1.10782,1.8929 -0.87266,2.18794 -0.32948,3.5652 1.40606,3.5652 1.0505,0 3.20642,1.87498 3.2181,2.79874 0.006,0.3978 0.1988,0.3398 0.51076,-0.153 0.44276,-0.6992 0.67818,-0.68726 1.97626,0.1002 1.37554,0.83452 1.47524,1.13388 1.49772,4.49792 0.014,1.98216 -0.179,3.88284 -0.42712,4.22374 -0.32352,0.44442 -0.1058,0.52966 0.76966,0.3012 1.16292,-0.30352 1.17692,-0.27462 0.29482,0.6086 -1.03936,1.04068 -1.05524,1.1317 -0.59702,3.42272 0.181,0.90478 0.52774,1.52224 0.77064,1.37212 0.24288,-0.1502 0.32254,-0.58326 0.177,-0.96254 z m -0.44476,-6.03552 c -0.40696,-1.28222 0.4543,-4.06808 1.77784,-5.7507 1.41276,-1.79604 1.4351,-0.60822 0.0244,1.29978 -0.5885,0.79598 -1.10334,2.33416 -1.14408,3.41816 -0.0826,2.1969 -0.22022,2.41284 -0.65822,1.03276 z m 0.7163,-10.40276 c -1.00074,-1.09974 -2.57552,-2.12406 -3.7529,-2.4411 -1.11574,-0.30044 -2.02862,-0.76074 -2.02862,-1.0229 0,-0.26216 1.0342,-0.1242 2.29824,0.30644 2.23884,0.76284 6.14356,4.11642 5.51952,4.74044 -0.1716,0.1716 -1.08788,-0.54072 -2.03624,-1.58288 z m -8.16278,-4.0049 c -0.1798,-0.29104 -0.089,-0.52916 0.20212,-0.52916 0.29104,0 0.67634,0.23812 0.85622,0.52916 0.1798,0.29104 0.089,0.52918 -0.20214,0.52918 -0.29104,0 -0.67632,-0.23814 -0.8562,-0.52918 z m -44.06852,19.02948 c -0.21708,-2.6923 -3.39306,-4.88556 -4.164275,-2.87578 -0.185,0.48222 0.24828,1.32528 1.074935,2.0914 0.76172,0.70594 1.38494,1.66956 1.38494,2.14136 0,0.53718 0.34614,0.7862 0.92604,0.6662 0.70398,-0.1456 0.89064,-0.63084 0.77836,-2.02318 z m 31.10394,-12.02482 c 0,-0.22204 0.53578,-0.63876 1.19062,-0.92606 0.9823,-0.43094 1.17082,-0.8927 1.0774,-2.63902 l -0.1132,-2.11666 0.55812,1.84672 c 0.40644,1.34484 0.3913,2.11386 -0.0558,2.82966 -0.76336,1.22234 -0.30434,1.78178 0.74644,0.90972 0.43084,-0.35756 1.00696,-0.51194 1.28024,-0.34302 0.2733,0.169 0.61158,0.008 0.75172,-0.35694 0.41102,-1.07108 -0.006,-4.96372 -0.66438,-6.19278 -0.33332,-0.62282 -0.54324,-1.65518 -0.46648,-2.29414 0.0768,-0.638941 -0.146,-1.681841 -0.4951,-2.317561 -0.34904,-0.6357 -0.63462,-1.5194 -0.63462,-1.96376 0,-0.44436 -0.50684,-1.28012 -1.12632,-1.85724 -0.6238,-0.58116 -0.99146,-1.40076 -0.82406,-1.83698 0.20582,-0.53634 -0.57452,-1.34436 -2.44556,-2.53236 -1.5113,-0.959578 -3.46218,-2.4032981 -4.33532,-3.2082581 -0.87312,-0.80496 -1.94468,-1.46624 -2.38124,-1.46952 -0.43656,-0.004 -1.50812,-0.47734 -2.38126,-1.05352 -0.88192,-0.58196 -2.01594,-0.91202 -2.55146,-0.74256 -0.55428,0.1754 -1.41136,-0.0998 -2.01668,-0.64768 -0.90376,-0.8179 -1.1218,-0.84336 -1.54098,-0.18 -0.76696,1.21376 -0.34074,1.72564 2.1771,2.61462 4.50646,1.59108 8.44994,3.7634601 11.093,6.1108781 1.46516,1.30126 2.32346,2.36596 1.90734,2.36596 -0.41612,0 -1.45094,-0.79082 -2.29956,-1.75736 -0.84864,-0.96654 -1.88534,-1.91752 -2.30378,-2.1133 -0.41844,-0.195799 -1.118,-0.554958 -1.55456,-0.798198 -2.72956,-1.5208201 -5.31814,-2.7394801 -5.81894,-2.7394801 -0.3202,0 -1.52396,-0.45502 -2.67504,-1.01116 l -2.09286,-1.01116 -0.2948,1.40804 c -0.1622,0.77442 -0.51852,1.82152 -0.79198,2.32688 -0.71214,1.3160801 -0.61342,3.5838981 0.1642,3.7737981 3.86178,0.94304 8.53196,2.90608 10.5384,4.42966 2.70212,2.05184 4.49422,5.688921 5.0386,10.225781 0.21094,1.7581 0.59664,2.56786 1.41836,2.97774 1.44412,0.72036 1.92236,0.7923 1.92236,0.28924 z m 1.57588,-7.40154 c -0.006,-0.80036 -0.48264,-2.493241 -1.05834,-3.761941 -1.12958,-2.48938 -1.35506,-4.30784 -0.53414,-4.30784 0.2819,0 0.38372,0.3357 0.22628,0.74598 -0.1574,0.4103 0.096,1.48512 0.56312,2.3885 1.03868,2.0086 1.91332,6.390521 1.27554,6.390521 -0.25346,0 -0.46608,-0.65484 -0.47246,-1.45522 z m -9.81134,5.0271 -1.5542,-1.7198 1.71978,1.55422 c 1.6031,1.44874 1.96302,1.88536 1.55422,1.88536 -0.091,0 -0.86498,-0.7739 -1.7198,-1.71978 z m 1.57052,-3.175 -1.00806,-1.19064 1.19062,1.00806 c 1.1189,0.94732 1.43152,1.3732 1.00806,1.3732 -0.1004,0 -0.6362,-0.53578 -1.19062,-1.19062 z m -5.51602,-2.26108 c -0.55922,-0.67382 -0.52648,-0.75124 0.1998,-0.47256 0.47772,0.1834 0.8686,0.54596 0.8686,0.80588 0,0.68048 -0.30632,0.58492 -1.06838,-0.33332 z m -2.10662,-1.31076 c -0.47694,-0.30822 -0.5422,-0.5162 -0.1636,-0.52106 0.34662,-0.004 0.7774,0.23002 0.95726,0.52106 0.40604,0.65698 0.22286,0.65698 -0.79374,0 z m 0.2684,-3.698321 c -0.1854,-0.29998 0.027,-0.38868 0.49794,-0.20798 0.91674,0.35178 1.08448,0.73108 0.3233,0.73108 -0.27386,0 -0.64342,-0.2354 -0.82124,-0.5231 z m 13.8428,-11.4713381 c -0.194,-0.194 -0.35278,-1.15164 -0.35278,-2.12802 0,-1.36768 0.29596,-1.91008 1.28916,-2.36262 0.70904,-0.32306 1.66154,-0.4445 2.11666,-0.26984 1.1999,0.46044 1.0239,1.93826 -0.23082,1.93826 -0.58798,0 -1.05834,0.35276 -1.05834,0.79374 0,1.50646 1.84976,0.60572 2.8416,-1.38372 0.88792,-1.78096 2.02648,-1.56766 3.14924,0.58998 l 0.96376,1.85208 -0.33328,-1.66942 c -0.36892,-1.84792 0.23964,-2.54438 1.79258,-2.0515 0.61776,0.196 1.09186,0.96272 1.24824,2.01854 0.38818,2.62086 0.014,3.0253 -2.7955,3.0253 -1.54096,0 -2.65042,-0.26098 -2.81202,-0.66146 -0.21352,-0.52918 -0.27526,-0.52918 -0.30868,0 -0.0442,0.70016 -4.84914,0.96936 -5.50982,0.30868 z"
       id="path780"
       sodipodi:nodetypes="cscssssssssssssssssssscccccsssscssssssssscscscsssscscccscsccscscccscccsscscsccccccccscscssssssssscssccsssccssccssscsscsccssccccscscsssssssscssscsssssscsscccsssscssscssscscccsscsssccsscsssssccsssccssccccsccsscssscccsssssscsssssccsssccssscsccscssscscsscssscccccscccccccsssccccccscssssccccccccccccccccccccsscscssscsssssscsssssscsccscccscscsccsscsscsscscsccsscssscsscccccccssccssscsssscssccssssssscssssscssscsscsscsscssscsssssssccssssssccsccssssssssscsssssscssccsscccssssssccsccccscscscsccssccsccscsscssscscssscsscccscsccccsccccccscsccscccssssccccsccccsscccccccsssssscsscssccccccscccccsscccssscsscscscccsscccsccscscccccssssscsscscsssssssccscssscccssccscscsssscsssscssscccccssssssscsssscscsssss" />
  </g>
  <g
     inkscape:groupmode="layer"
     id="layer2"
     inkscape:label="Hand Drawing"
     style="display:none">
    <g
       id="g13552"
       transform="matrix(1.6975767,0,0,1.6975767,-74.706982,-0.90961632)">
      <g
         id="g3576" />
    </g>
    <path
       style="fill:none;stroke:#000000;stroke-width:0.449149px;stroke-linecap:butt;stroke-linejoin:miter;stroke-opacity:1"
       d="m 119.3053,20.558697 c 13.93702,4.165548 26.52954,8.876352 28.74006,24.295353 0.22894,1.596905 0.5024,8.061359 1.47424,9.1356 0.65293,0.721727 5.37752,-0.140203 6.35119,-0.140203 11.51062,0 8.15046,-4.747641 8.15046,-13.117163 0,-7.946191 -3.79841,-16.414088 -7.85727,-22.502224 -1.86286,-2.794226 -28.2717,-17.050017 -30.03571,-15.2807447 -1.32363,1.3275603 -2.37908,3.007659 -3.23986,4.8664324 -1.85128,3.9977263 -3.58311,8.8219423 -3.58311,12.7429573 z"
       id="path10030"
       sodipodi:nodetypes="ssssssssss" />
    <path
       style="fill:none;stroke:#000000;stroke-width:0.449149px;stroke-linecap:butt;stroke-linejoin:miter;stroke-opacity:1"
       d="m 190.16092,75.638773 c -14.36793,16.84407 -27.92617,22.170331 -48.45037,17.897022 -9.70524,-1.600466 -18.72306,-2.65051 -27.06994,-5.920357 C 106.2937,84.345588 101.8406,79.823814 97.544673,75.01954 93.248738,70.215265 88.564203,61.788782 91.011854,55.585037 93.459504,49.38129 99.927663,43.003656 112.3817,36.530833 c 1.25263,-0.651044 2.56509,1.27428 3.87782,1.927277 4.13471,2.056699 8.34396,4.269397 11.44382,7.121291 -6.40799,7.927647 -9.54064,9.724629 -7.09002,13.387643 1.05775,1.581083 7.58005,6.947626 12.26594,8.760602 4.6169,1.786265 9.79736,1.767313 14.74772,1.750091 6.6432,-0.0231 16.73823,0.945048 23.18506,-3.471358 4.96124,-3.398701 13.27836,-10.196822 8.93572,-15.672882 -1.04007,-1.202659 -3.05938,-2.092938 -4.90779,-3.138758 -1.84845,-1.045818 -3.52601,-2.247177 -3.88257,-4.071992 -0.17829,-0.912407 -0.0263,-1.980685 0.59966,-3.263305 0.23523,-0.481987 0.53447,-1.135239 0.90863,-1.803907 0.62157,-1.110736 1.44991,-2.264017 2.5351,-2.745519 1.51738,-0.673256 3.40108,0.232008 4.961,0.43597 1.55991,0.203961 3.02638,0.465742 4.40032,0.782877 1.37393,0.317137 2.65535,0.689628 3.84515,1.11501 1.18979,0.425384 2.28797,0.903658 3.29543,1.432362 1.00745,0.528703 1.92419,1.107836 2.75114,1.734935 0.82697,0.627099 1.56415,1.302165 2.21242,2.022731 0.64826,0.72057 1.20767,1.48664 1.67909,2.295748 0.47141,0.809111 0.85486,1.661262 1.15124,2.55399 0.29637,0.892726 0.50572,1.826032 0.62888,2.79745 0.12324,0.971418 0.16026,1.98095 0.11203,3.026131 -0.0481,1.045182 -0.18164,2.126016 -0.39944,3.240037 -0.21778,1.114021 -0.51988,2.26123 -0.90538,3.439163 -0.38553,1.177933 -0.85446,2.386593 -1.40589,3.623513 -0.55144,1.236919 -1.18536,2.5021 -1.9009,3.793079 -0.71552,1.29098 -1.51263,2.607761 -2.39044,3.947873 -0.87779,1.340114 -1.83626,2.703564 -2.8745,4.087888 z"
       id="path10950"
       sodipodi:nodetypes="ccssssscsasacsssssssssssssssssssscc" />
    <g
       id="g13256"
       transform="matrix(1.6975767,0,0,1.6975767,-74.706982,-0.90961632)">
      <g
         id="g11195">
        <path
           style="fill:none;stroke:#000000;stroke-width:0.264583px;stroke-linecap:butt;stroke-linejoin:miter;stroke-opacity:1"
           d="m 126.45679,71.208325 c -2.29001,0.460962 -4.34761,6.914278 -4.54324,11.689121 -0.0861,2.101979 0.1886,3.878681 0.96318,4.675697 4.41768,4.545642 13.35423,-1.986994 18.32704,2.998721 6.981,6.999123 7.88822,20.885496 5.84113,32.561626 -1.75697,10.02134 -5.77188,18.70674 -15.01799,18.26819 -8.72376,-0.41377 -41.242004,-2.07111 -52.76903,0.0518 0.235617,7.99878 -1.4433,11.80672 0.646696,15.98414 5.249204,1.01349 13.843219,0.3883 20.766864,0.44459 6.48936,0.0528 13.32768,-0.2514 19.46848,-0.10017 16.20776,0.39915 29.31833,0.40489 38.95605,-12.67447 3.85571,-5.23258 5.83922,-9.75597 6.54906,-15.43469 0.55031,-4.40243 0.90631,-7.27404 1.45843,-11.69098 1.66322,-13.30579 -6.69656,-39.575095 -21.25014,-44.426286 -6.25258,-2.084191 -13.0655,-1.342961 -19.39653,-2.347269"
           id="path10952"
           sodipodi:nodetypes="csssssccasssssc" />
      </g>
    </g>
    <g
       id="g32213"
       transform="matrix(1.6975767,0,0,1.6975767,-74.706982,-0.90961632)">
      <path
         style="fill:none;stroke:#000000;stroke-width:0.264583px;stroke-linecap:butt;stroke-linejoin:miter;stroke-opacity:1"
         d="m 110.21109,4.8004401 c 0.009,0.1872612 0.0163,0.377352 0.009,2.6172364 -0.007,2.2398845 -0.0644,3.4374225 -0.12914,4.4706325 -0.0648,1.03321 -0.13724,1.902093 -0.19513,2.471234 -2.41606,0.176044 -4.96036,0.590393 -7.52781,1.217548 -2.567463,0.627156 -5.158083,1.467118 -7.666792,2.494387 -2.508709,1.027269 -4.935506,2.241846 -7.175318,3.618231 -2.239812,1.376385 -4.292638,2.914579 -6.053406,4.589082 -1.760768,1.674503 -3.229477,3.485316 -4.301054,5.406939 -1.071576,1.921623 -1.746021,3.954056 -1.918258,6.071802 -0.172238,2.117745 0.15773,4.320802 1.094978,6.583671 0.937248,2.262869 2.481776,4.585551 4.738657,6.942547 1.472509,1.537829 3.210567,2.93504 5.110304,4.223857 1.899738,1.288817 3.961156,2.469238 6.080386,3.573486 2.119229,1.104248 4.29627,2.132323 6.427253,3.116446 2.13098,0.984123 4.21591,1.924294 6.15091,2.852736 L 94.257574,77.935087 m 0,0 c 0,0 -1.399123,2.908793 -2.943409,3.473164 -1.544286,0.564371 -7.083941,-1.186259 -10.526818,-2.326299 -4.318569,-1.430009 -8.8566,-3.373917 -12.378458,-5.747036 C 64.887031,70.961797 61.632477,68.26914 58.82442,65.548312 56.016362,62.827485 53.6548,60.078486 51.918925,57.592683 47.060639,50.622468 44.869389,44.252609 44.650123,38.512828 44.430857,32.773047 46.183574,27.663344 49.213223,23.213441 52.242872,18.763538 56.549453,14.973436 61.437912,11.872857 66.326371,8.7722774 71.79671,6.3612211 77.153874,4.6694101 85.26741,2.1071275 87.080535,2.1973984 94.162587,1.752016 97.281548,1.555868 100.20454,1.3250594 102.84982,1.2657884 m 0,0 c 2.64528,-0.059271 4.60857,-0.27914263 6.61667,0.2108599 0.22325,0.05833 0.46944,0.1139917 0.52851,0.379692 0.18009,0.8004385 0.16192,1.7952405 0.21609,2.9440998"
         id="path16696"
         sodipodi:nodetypes="ccscsssssssssssccczssscsssssccccc" />
      <path
         style="fill:none;stroke:#000000;stroke-width:0.264583px;stroke-linecap:butt;stroke-linejoin:miter;stroke-opacity:1"
         d="M 110.12924,5.3767736 C 101.59726,5.4084326 94.317163,5.0518438 86.70427,6.8565854 80.261293,8.3839822 74.173355,11.347464 68.426693,14.636957 c -4.157446,2.379797 -8.504878,5.235918 -11.549845,8.551677 -10.10077,10.999042 -5.348926,26.513143 3.062783,36.077075 3.490204,3.822789 7.996311,8.12297 13.739408,11.360663 5.743098,3.237694 13.125993,4.688105 20.578535,7.308715"
         id="path23156"
         sodipodi:nodetypes="caascsc" />
    </g>
    <path
       style="fill:none;stroke:#000000;stroke-width:0.449149px;stroke-linecap:butt;stroke-linejoin:miter;stroke-opacity:1"
       d="m 132.25062,139.81515 c 3.4506,0.12217 21.3918,0.11537 24.47144,0.67796 6.15925,1.12518 8.78649,2.02324 13.01262,5.94103 8.45231,7.83558 11.55329,14.48798 13.69981,27.47618 2.14655,12.98823 1.09513,37.58343 -3.42757,49.24636 -4.52266,11.66293 -7.22468,19.17682 -18.7801,23.03655 -5.96049,1.99092 -14.38134,1.2222 -22.59488,0.95856 -8.21358,-0.26363 -19.47328,-0.24425 -28.83467,-0.0548 -17.751677,0.37883 -31.30169,-0.24967 -49.72207,-0.9592"
       id="path34941"
       sodipodi:nodetypes="csssssscc" />
    <path
       style="fill:none;stroke:#000000;stroke-width:0.449149px;stroke-linecap:butt;stroke-linejoin:miter;stroke-opacity:1"
       d="m 122.88841,7.8157477 c 3.73571,0.8763549 4.12888,1.0514677 6.47355,2.0969622 2.00792,0.8953451 5.58583,2.0779811 7.11367,2.9946831 5.13588,3.081533 10.95701,5.884336 14.87944,10.380167 1.81317,2.078211 2.88113,5.261226 4.03032,7.626616 1.14922,2.365392 1.89551,6.588025 2.29808,9.195718 0.40258,2.607693 1.55933,4.600828 1.13285,7.405939 -0.42671,2.80511 -1.6069,3.375965 -2.94553,6.333614"
       id="path40326"
       sodipodi:nodetypes="cssssssc" />
    <path
       style="fill:none;stroke:#000000;stroke-width:0.449149px;stroke-linecap:butt;stroke-linejoin:miter;stroke-opacity:1"
       d="m 172.46569,38.055535 c 6.03729,0.847629 18.63697,3.928053 21.39604,11.548544 1.12436,3.105513 -2.85713,6.000236 -3.68537,9.197492 -0.44442,1.715549 -0.26867,3.547722 -0.66731,5.27448 -0.52571,2.277212 -1.50055,4.943361 -2.25815,6.637721 -5.7982,10.157614 -13.42342,14.305745 -22.32472,17.487242 -3.91286,1.398528 -8.32527,0.658465 -12.4628,0.274911 -4.86629,-0.45111 -9.21826,0.961659 -13.76448,0.332866 -4.64109,-0.641912 -8.98641,-2.661515 -13.43193,-4.141092 -3.63865,-1.211032 -7.37015,-2.226052 -10.83245,-3.87492 -4.13,-1.966833 -8.11059,-4.324566 -11.73238,-7.118802 -3.100539,-2.276808 -5.592628,-5.282313 -6.767099,-8.69017 -0.682349,-2.084471 -1.556724,-4.437762 -0.872975,-6.521775 1.577969,-4.809518 6.851254,-7.465424 10.539584,-10.932087 3.39945,-3.195167 7.725,-6.492009 10.65787,-9.071835"
       id="path40364"
       sodipodi:nodetypes="caaacasaaaccaac" />
  </g>
  <g
     inkscape:groupmode="layer"
     id="layer3"
     inkscape:label="Color"
     style="display:inline">
    <path
       style="display:inline;fill:#00ff00;stroke-width:0.224575"
       d="m 137.50067,88.112238 c -1.07596,-0.236142 -3.60244,-1.002437 -5.61438,-1.702893 -2.01196,-0.70045 -6.14648,-2.116341 -9.18786,-3.146424 -6.16718,-2.088771 -9.03691,-3.359776 -13.21702,-5.853828 -5.58323,-3.331219 -9.65944,-6.838527 -11.44223,-9.845307 -0.42332,-0.713947 -1.11708,-2.324744 -1.54171,-3.579545 -1.00255,-2.962642 -1.05791,-4.664949 -0.20929,-6.436102 1.02912,-2.147911 2.1409,-3.284211 7.85419,-8.027529 1.45125,-1.204854 4.77929,-4.009706 7.39563,-6.233 2.61636,-2.223296 4.8934,-4.124941 5.06012,-4.225879 0.57134,-0.345951 7.92607,3.859172 10.46935,5.985937 l 0.63587,0.531733 -2.65704,3.126313 c -4.78027,5.624509 -5.11567,6.177135 -4.97014,8.189041 0.12403,1.713856 0.82078,2.691691 3.52905,4.95223 4.63694,3.870374 8.69712,6.118309 12.76779,7.068927 2.18642,0.51059 3.14012,0.583658 10.27036,0.78685 16.28208,0.463989 20.80871,-0.348348 26.72447,-4.795889 4.23592,-3.184626 7.19816,-6.604351 8.09443,-9.344569 0.68223,-2.085801 0.11643,-4.489165 -1.39275,-5.916309 -0.35098,-0.331899 -1.74979,-1.229092 -3.10847,-1.99376 -3.16247,-1.779853 -4.3275,-2.730844 -4.8825,-3.985499 -0.53826,-1.216852 -0.4272,-2.202862 0.4499,-3.994067 l 0.61482,-1.255605 1.10924,0.146753 c 2.09217,0.276791 7.20088,1.706925 9.65224,2.702049 4.71964,1.915935 8.0094,4.419201 9.5116,7.237629 1.1825,2.218602 1.02881,3.032706 -1.24796,6.610365 -1.61572,2.538912 -1.97022,3.520855 -2.17599,6.027483 -0.32696,3.982841 -1.8561,8.403359 -4.03943,11.677409 -4.36981,6.552733 -9.86483,10.791734 -18.22869,14.062063 -4.26036,1.665826 -4.7572,1.745925 -9.51527,1.533907 -5.1415,-0.229097 -9.95607,-0.23946 -14.93426,-0.03216 -3.31878,0.138213 -4.07348,0.102879 -5.77407,-0.270345 z"
       id="path2336" />
    <path
       style="display:inline;fill:#0000ff;fill-opacity:1;stroke-width:0.224575"
       d="m 149.83228,53.452574 c -0.21036,-0.06184 -0.43404,-0.282803 -0.49707,-0.491015 -0.34438,-1.137591 -0.59953,-2.786543 -0.90957,-5.87815 -0.74201,-7.399027 -2.4448,-11.610293 -6.36975,-15.753397 -3.99519,-4.217242 -8.65077,-6.82904 -17.42679,-9.776479 -1.96748,-0.660783 -3.95361,-1.302768 -4.41361,-1.426634 -0.82348,-0.221741 -0.83476,-0.239882 -0.73195,-1.176856 0.28951,-2.63831 1.50158,-6.830636 2.86842,-9.9213023 l 0.53645,-1.212993 1.64838,0.4250946 c 0.90661,0.2338017 3.75248,1.2845897 6.32415,2.3350837 7.77803,3.177232 16.51381,8.585598 19.69052,12.190529 1.22645,1.391762 1.78939,2.371737 3.37331,5.872379 1.61124,3.560997 2.10241,5.128123 2.81286,8.974828 0.30594,1.656464 0.774,3.832618 1.04012,4.835897 0.53689,2.023945 0.63116,4.777169 0.20092,5.866498 -0.14636,0.37055 -0.79094,1.598626 -1.43241,2.729058 -1.16118,2.046303 -1.17074,2.055877 -2.1769,2.180149 -1.82604,0.225536 -4.14753,0.341843 -4.53708,0.22731 z"
       id="path2562" />
    <path
       style="display:inline;fill:#ff0000;fill-opacity:1;stroke-width:0.224575"
       d="m 150.9038,95.138237 c -1.95266,-0.14334 -4.85898,-0.54179 -7.97243,-1.09301 -1.72924,-0.30615 -5.67052,-0.96506 -8.75843,-1.46426 -16.35691,-2.64423 -24.07705,-5.64386 -31.32824,-12.17248 -6.88605,-6.19985 -11.22481,-13.13565 -11.89651,-19.01735 -0.25129,-2.20025 0.0482,-3.992653 1.00711,-6.029453 2.63941,-5.605734 8.37441,-10.865086 17.63429,-16.171757 3.70295,-2.122101 3.38523,-2.052081 4.82185,-1.062649 0.67872,0.467457 1.23404,0.919235 1.23404,1.003951 0,0.08472 -1.59221,1.473646 -3.53825,3.086508 -1.94603,1.612861 -4.54829,3.8336 -5.78282,4.934975 -1.2345,1.101377 -3.47364,2.984116 -4.97586,4.183869 -3.28181,2.620995 -4.95875,4.420755 -5.86178,6.291026 -0.9031,1.87046 -1.03045,2.9393 -0.59906,5.02781 1.35319,6.55121 5.01492,10.80669 13.79594,16.03295 4.04747,2.40896 7.49936,3.92765 13.69908,6.02708 3.27319,1.1084 7.5654,2.57172 9.53822,3.25182 5.0818,1.75187 6.95182,2.04995 11.33018,1.80606 4.25678,-0.23713 9.12074,-0.23634 14.50221,0.002 2.67553,0.11867 4.47192,0.0981 5.31283,-0.0608 3.10922,-0.58747 9.87493,-3.60609 13.51807,-6.03127 3.80947,-2.53591 7.95236,-6.91592 10.45337,-11.05168 1.51539,-2.50588 3.02018,-7.32231 3.26989,-10.46595 0.19926,-2.50856 0.40608,-3.14145 1.73042,-5.294813 2.72328,-4.428023 2.95733,-5.430385 1.8215,-7.800833 -0.79714,-1.663608 -3.4906,-4.364668 -5.61768,-5.633546 -3.31501,-1.977514 -8.45291,-3.803547 -13.08807,-4.65156 l -2.01041,-0.367811 0.71224,-0.899274 c 0.39172,-0.494601 1.07241,-1.050959 1.51261,-1.236351 0.7326,-0.308517 1.02872,-0.294422 3.49531,0.166384 5.40954,1.010609 7.90686,1.629417 10.10588,2.50414 11.58249,4.60727 13.96439,14.404001 6.81738,28.039924 -2.83571,5.41032 -5.79515,9.41697 -10.29753,13.9414 -8.81211,8.85528 -17.13902,13.16527 -27.28665,14.12354 -2.32683,0.21972 -5.0041,0.24944 -7.2987,0.081 z"
       id="path1997" />
    <path
       style="display:inline;fill:#ff0000;fill-opacity:1;stroke-width:0.224575"
       d="m 156.48158,52.862838 c 0.33594,-0.542632 0.97218,-1.728353 1.41388,-2.634935 0.7281,-1.494455 0.80397,-1.829904 0.81273,-3.593205 0.006,-1.335377 -0.14517,-2.5079 -0.48442,-3.741474 -0.27176,-0.988129 -0.75151,-3.211425 -1.06616,-4.940655 -0.72323,-3.975108 -1.48378,-6.239577 -3.48965,-10.390225 -1.54031,-3.187311 -1.67862,-3.387781 -3.7647,-5.457033 -2.58065,-2.559818 -4.35547,-3.82354 -10.02998,-7.141647 -3.38874,-1.981515 -5.29101,-2.910066 -9.20759,-4.494463 -2.71504,-1.0983323 -5.51753,-2.1256526 -6.22777,-2.2829344 -0.71021,-0.1572818 -1.2913,-0.3749703 -1.2913,-0.4837523 0,-0.4004334 0.89157,-1.9276416 1.78569,-3.0587827 1.11714,-1.4133023 1.4152,-1.4464171 4.2038,-0.4670663 6.21917,2.1841476 22.15099,10.8239007 25.7085,13.9415907 0.74226,0.650488 1.84939,2.413579 3.5466,5.647843 2.21011,4.211749 3.73603,8.555226 4.3921,12.502156 0.3167,1.905324 0.8367,9.782655 0.83236,12.609034 -0.005,3.178893 -1.52582,4.382361 -6.0848,4.814722 l -1.66008,0.157436 z"
       id="path2036" />
    <path
       style="display:inline;fill:#0000ff;fill-opacity:1;stroke-width:0.224575"
       d="m 83.275653,129.94589 c -1.049891,-0.36253 -5.496479,-1.75985 -9.881309,-3.10515 -9.364937,-2.8732 -13.747625,-4.36281 -17.292294,-5.87736 C 50.322381,118.49386 43.743206,114.26845 37.767843,109.18839 35.104013,106.92371 28.61403,100.46948 26.583875,98.066037 21.11726,91.594285 16.783419,83.647902 14.588806,76.072275 10.465538,61.839058 12.849279,49.277301 21.616279,39.039151 26.665327,33.142842 36.061465,26.619976 49.477079,19.697983 60.007311,14.264745 68.758468,11.186077 78.110425,9.6247355 84.307018,8.5901924 86.874261,8.4366018 99.83808,8.3248387 l 12.40777,-0.1069694 -4.5e-4,2.0993447 c -4.5e-4,2.572947 -0.40827,11.352832 -0.5577,12.005501 -0.0948,0.414296 -0.32818,0.493781 -1.85257,0.631086 -2.73961,0.246766 -7.7585,1.150018 -11.18503,2.012974 -15.486705,3.900252 -29.687129,11.69705 -37.704232,20.701661 -11.392167,12.795403 -10.876628,26.750079 1.475675,39.943748 5.711718,6.100771 14.388576,11.580492 29.275571,18.488486 1.852756,0.85973 5.061356,2.34827 7.130266,3.30785 2.06889,0.95958 3.76163,1.83741 3.76163,1.9507 0,0.18657 -16.178077,20.00859 -17.039942,20.87801 -0.337614,0.34058 -0.506087,0.31898 -2.273521,-0.29134 z"
       id="path2523" />
    <path
       style="display:inline;fill:#ff0000;fill-opacity:1;stroke-width:0.224575"
       d="M 75.41652,136.95938 C 66.58418,135.08968 53.46358,130.29941 46.334026,126.3415 40.458293,123.07963 33.536079,117.86149 26.855481,111.65806 12.496436,98.324613 3.4515068,82.439903 1.7417608,67.55332 1.4141228,64.700637 1.5804888,59.014064 2.0690518,56.365858 3.8834898,46.530958 8.5838548,38.186279 16.831781,30.157185 23.191388,23.966311 29.813583,19.386963 39.259905,14.647797 49.54312,9.4887643 63.82847,4.8176653 72.83391,3.6695913 c 2.99818,-0.382229 17.00958,-1.331243 25.35353,-1.717234 5.87792,-0.271912 11.43951,-0.170358 12.7554,0.232912 0.93337,0.286041 0.94359,0.321468 1.18085,4.090794 l 0.12216,1.941806 -12.4073,0.111329 C 87.79974,8.4372203 85.58123,8.5458833 80.13254,9.2944053 73.52433,10.202217 64.83396,12.62338 58.46103,15.33215 52.85657,17.714293 45.46897,21.504251 39.259852,25.182671 21.974446,35.422932 14.435141,44.660198 12.285275,58.232317 c -0.406972,2.56919 -0.339915,8.89637 0.126141,11.902488 1.703474,10.987618 7.089962,21.924698 15.207894,30.879095 5.494715,6.06088 12.175204,11.86837 18.153227,15.78099 6.898303,4.51494 11.955593,6.68549 24.216913,10.39373 10.36109,3.13355 14.8805,4.66175 14.75482,4.98925 -0.56338,1.46816 -3.25515,4.60495 -4.28892,4.99798 -0.85784,0.32615 -2.8875,0.23895 -5.03889,-0.21647 z"
       id="path1958" />
    <path
       style="display:inline;fill:#ff0000;fill-opacity:1;stroke-width:0.224575"
       d="m 139.28287,246.52816 c -2.52196,-0.12337 -13.18932,-0.16214 -25.15242,-0.0913 -21.80364,0.12896 -37.788467,-0.14918 -51.76459,-0.90091 l -2.470329,-0.13285 0.07458,-3.06931 c 0.041,-1.68812 0.109564,-3.10429 0.152326,-3.14706 0.183463,-0.18345 4.579027,-0.72428 8.41924,-1.03588 14.224403,-1.15418 40.268033,-0.91609 74.334393,0.67956 9.56716,0.44811 11.63859,0.28943 15.10067,-1.15686 9.74016,-4.06899 15.81714,-16.77662 18.14106,-37.93487 0.39396,-3.58687 0.53547,-13.73865 0.24105,-17.29228 -1.10396,-13.32462 -4.88512,-23.52877 -11.04642,-29.81083 -1.90425,-1.94156 -3.9541,-3.07468 -6.36432,-3.51805 -2.0342,-0.3742 -5.94349,-0.29366 -9.90975,0.20418 -7.37,0.92504 -9.92345,0.83454 -12.63499,-0.44782 -2.82236,-1.33476 -3.76602,-2.96545 -4.01854,-6.9443 l -0.13421,-2.11443 9.97268,0.1498 c 11.50382,0.17279 14.00086,0.3501 17.52134,1.24416 4.81916,1.22383 6.59179,2.32636 11.20337,6.96819 3.60284,3.62649 5.26876,5.81125 7.07112,9.27337 2.69795,5.18249 4.74908,13.36977 5.53066,22.07624 0.3553,3.95794 0.35646,15.988 0.003,20.43636 -0.57875,7.26238 -1.51589,13.51102 -2.73617,18.2437 -1.50236,5.82674 -5.94653,15.92113 -8.50332,19.31425 -2.52355,3.349 -5.46872,5.58451 -9.55758,7.25459 -3.82299,1.56148 -5.60999,1.82686 -12.8045,1.90149 -3.45845,0.036 -8.25875,-0.0312 -10.66732,-0.14905 z"
       id="path2075" />
    <path
       style="display:inline;fill:#0000ff;stroke-width:0.224575"
       d="m 71.566368,266.9015 c -5.6077,-0.13643 -9.45154,-0.47434 -10.26556,-0.90242 -0.89637,-0.47135 -2.16313,-6.74456 -1.86043,-9.21311 0.0507,-0.41334 0.21333,-2.89902 0.36143,-5.52375 0.17718,-3.14001 0.35326,-4.77206 0.51483,-4.77172 0.13505,2.8e-4 2.5699,0.0989 5.41077,0.21932 15.4892,0.65616 21.15055,0.75447 48.508252,0.8424 16.30416,0.0524 32.47357,0.10522 35.93204,0.11736 5.57786,0.0195 6.52909,-0.0305 8.42157,-0.44346 8.49467,-1.85337 13.71531,-6.066 17.71434,-14.29398 1.2978,-2.67024 4.27021,-10.12429 4.93691,-12.38051 3.63766,-12.31063 4.64744,-35.03014 2.15694,-48.52993 -2.06451,-11.19076 -4.99939,-17.26191 -11.55825,-23.90976 -4.94505,-5.01213 -7.09802,-6.24857 -13.0796,-7.5115 -2.29172,-0.48387 -3.64882,-0.60041 -9.12296,-0.78345 -3.53694,-0.11829 -8.83094,-0.21721 -11.76444,-0.21988 -4.53349,-0.004 -5.33367,-0.0543 -5.33367,-0.33402 0,-1.20992 0.81826,-5.87582 1.46644,-8.36211 1.30363,-5.00021 3.27445,-8.93774 5.03632,-10.06206 0.78135,-0.49861 0.83744,-0.50238 3.06295,-0.20598 1.24686,0.16606 5.74398,0.50959 9.9936,0.76341 13.7412,0.8207 18.73044,1.74745 24.34516,4.52214 14.62013,7.22501 27.67335,30.32085 31.54491,55.81427 1.3428,8.84209 1.23397,12.99996 -0.74572,28.48838 -0.80517,6.29936 -1.68189,12.46393 -1.94824,13.69911 -1.24294,5.76385 -3.99615,12.01523 -7.82049,17.75703 -10.2667,15.41425 -21.99171,22.36725 -41.27743,24.47778 -4.50419,0.49291 -14.57774,0.69388 -24.78038,0.49439 -4.63187,-0.0905 -10.34168,-0.1163 -12.68849,-0.0573 -2.34682,0.0591 -12.55166,0.16684 -22.677412,0.23935 -10.12576,0.0726 -18.46311,0.14991 -18.52745,0.17196 -0.0643,0.022 -2.74451,-0.0239 -5.95594,-0.102 z"
       id="path2601" />
  </g>
</svg>
