<?xml version="1.0" encoding="UTF-8" standalone="no"?>
<!-- Created with Inkscape (http://www.inkscape.org/) -->

<svg
   width="210mm"
   height="297mm"
   viewBox="0 0 210 297"
   version="1.1"
   id="svg5"
   sodipodi:docname="drawing_HIPP.svg"
   inkscape:version="1.1.1 (3bf5ae0d25, 2021-09-20)"
   xmlns:inkscape="http://www.inkscape.org/namespaces/inkscape"
   xmlns:sodipodi="http://sodipodi.sourceforge.net/DTD/sodipodi-0.dtd"
   xmlns="http://www.w3.org/2000/svg"
   xmlns:svg="http://www.w3.org/2000/svg">
  <sodipodi:namedview
     id="namedview7"
     pagecolor="#ffffff"
     bordercolor="#666666"
     borderopacity="1.0"
     inkscape:pageshadow="2"
     inkscape:pageopacity="0.0"
     inkscape:pagecheckerboard="0"
     inkscape:document-units="mm"
     showgrid="false"
     inkscape:zoom="2"
     inkscape:cx="331.5"
     inkscape:cy="348"
     inkscape:window-width="1440"
     inkscape:window-height="2523"
     inkscape:window-x="0"
     inkscape:window-y="0"
     inkscape:window-maximized="1"
     inkscape:current-layer="layer2" />
  <defs
     id="defs2">
    <inkscape:path-effect
       effect="bspline"
       id="path-effect2299"
       is_visible="true"
       lpeversion="1"
       weight="33.333333"
       steps="2"
       helper_size="0"
       apply_no_weight="true"
       apply_with_weight="true"
       only_selected="false" />
    <inkscape:path-effect
       effect="bspline"
       id="path-effect2262"
       is_visible="true"
       lpeversion="1"
       weight="33.333333"
       steps="2"
       helper_size="0"
       apply_no_weight="true"
       apply_with_weight="true"
       only_selected="false" />
    <inkscape:path-effect
       effect="bspline"
       id="path-effect2225"
       is_visible="true"
       lpeversion="1"
       weight="33.333333"
       steps="2"
       helper_size="0"
       apply_no_weight="true"
       apply_with_weight="true"
       only_selected="false" />
    <inkscape:path-effect
       effect="bspline"
       id="path-effect2188"
       is_visible="true"
       lpeversion="1"
       weight="33.333333"
       steps="2"
       helper_size="0"
       apply_no_weight="true"
       apply_with_weight="true"
       only_selected="false" />
    <inkscape:path-effect
       effect="bspline"
       id="path-effect2151"
       is_visible="true"
       lpeversion="1"
       weight="33.333333"
       steps="2"
       helper_size="0"
       apply_no_weight="true"
       apply_with_weight="true"
       only_selected="false" />
    <inkscape:path-effect
       effect="bspline"
       id="path-effect2147"
       is_visible="true"
       lpeversion="1"
       weight="33.333333"
       steps="2"
       helper_size="0"
       apply_no_weight="true"
       apply_with_weight="true"
       only_selected="false" />
    <inkscape:path-effect
       effect="bspline"
       id="path-effect2110"
       is_visible="true"
       lpeversion="1"
       weight="33.333333"
       steps="2"
       helper_size="0"
       apply_no_weight="true"
       apply_with_weight="true"
       only_selected="false" />
    <inkscape:path-effect
       effect="bspline"
       id="path-effect1833"
       is_visible="true"
       lpeversion="1"
       weight="33.333333"
       steps="2"
       helper_size="0"
       apply_no_weight="true"
       apply_with_weight="true"
       only_selected="false" />
    <inkscape:path-effect
       effect="bspline"
       id="path-effect1829"
       is_visible="true"
       lpeversion="1"
       weight="33.333333"
       steps="2"
       helper_size="0"
       apply_no_weight="true"
       apply_with_weight="true"
       only_selected="false" />
    <inkscape:path-effect
       effect="bspline"
       id="path-effect1825"
       is_visible="true"
       lpeversion="1"
       weight="33.333333"
       steps="2"
       helper_size="0"
       apply_no_weight="true"
       apply_with_weight="true"
       only_selected="false" />
    <inkscape:path-effect
       effect="bspline"
       id="path-effect1821"
       is_visible="true"
       lpeversion="1"
       weight="33.333333"
       steps="2"
       helper_size="0"
       apply_no_weight="true"
       apply_with_weight="true"
       only_selected="false" />
    <inkscape:path-effect
       effect="bspline"
       id="path-effect1817"
       is_visible="true"
       lpeversion="1"
       weight="33.333333"
       steps="2"
       helper_size="0"
       apply_no_weight="true"
       apply_with_weight="true"
       only_selected="false" />
    <inkscape:path-effect
       effect="bspline"
       id="path-effect1813"
       is_visible="true"
       lpeversion="1"
       weight="33.333333"
       steps="2"
       helper_size="0"
       apply_no_weight="true"
       apply_with_weight="true"
       only_selected="false" />
    <inkscape:path-effect
       effect="bspline"
       id="path-effect1809"
       is_visible="true"
       lpeversion="1"
       weight="33.333333"
       steps="2"
       helper_size="0"
       apply_no_weight="true"
       apply_with_weight="true"
       only_selected="false" />
    <inkscape:path-effect
       effect="bspline"
       id="path-effect1805"
       is_visible="true"
       lpeversion="1"
       weight="33.333333"
       steps="2"
       helper_size="0"
       apply_no_weight="true"
       apply_with_weight="true"
       only_selected="false" />
    <inkscape:path-effect
       effect="bspline"
       id="path-effect1768"
       is_visible="true"
       lpeversion="1"
       weight="33.333333"
       steps="2"
       helper_size="0"
       apply_no_weight="true"
       apply_with_weight="true"
       only_selected="false" />
    <inkscape:path-effect
       effect="bspline"
       id="path-effect1764"
       is_visible="true"
       lpeversion="1"
       weight="33.333333"
       steps="2"
       helper_size="0"
       apply_no_weight="true"
       apply_with_weight="true"
       only_selected="false" />
    <inkscape:path-effect
       effect="bspline"
       id="path-effect1760"
       is_visible="true"
       lpeversion="1"
       weight="33.333333"
       steps="2"
       helper_size="0"
       apply_no_weight="true"
       apply_with_weight="true"
       only_selected="false" />
  </defs>
  <g
     inkscape:label="Layer 1"
     inkscape:groupmode="layer"
     id="layer1"
     style="display:none"
     sodipodi:insensitive="true">
    <path
       style="fill:#000000;stroke-width:0.529166"
       d="m 78.999812,157.53579 c -0.69542,-0.6956 -0.98266,-14.34302 -0.3373,-16.02482 0.29144,-0.7595 3.20084,-0.84226 28.833218,-0.82014 31.913,0.0274 30.38716,0.20206 33.29222,-3.80828 3.11068,-4.29414 4.44668,-8.01558 5.0002,-13.92798 0.109,-1.16418 0.43826,-2.7417 0.73172,-3.5056 0.75354,-1.9616 0.88146,-8.79422 0.21174,-11.31108 -0.30978,-1.16416 -0.7193,-3.30728 -0.91006,-4.7625 -0.61722,-4.708657 -2.3782,-9.257977 -4.32212,-11.165817 -3.00044,-2.944738 -4.19144,-3.255398 -11.67954,-3.046578 -8.77536,0.24474 -8.4211,0.65292 -7.5695,-8.72166 0.85776,-9.442098 0.72482,-9.302698 9.06052,-9.501598 12.04722,-0.28748 16.79536,1.31054 23.13292,7.785558 2.1601,2.20694 4.97284,5.61156 6.25054,7.56586 2.71558,4.153558 5.67906,12.607498 6.45252,18.407155 0.29112,2.18282 0.78142,4.92126 1.08956,6.08542 0.35284,1.33304 0.38366,2.70438 0.0832,3.70416 -0.26238,0.87314 -0.72612,3.54576 -1.03058,5.93918 -0.30444,2.3934 -0.77442,4.77466 -1.04438,5.29166 -0.26996,0.517 -0.73188,2.36874 -1.02648,4.115 -1.64798,9.76836 -3.49198,13.7814 -8.64562,18.81518 -3.17054,3.09678 -5.26366,4.58844 -9.28172,6.61458 l -5.188,2.61608 -31.22082,0.159 c -24.447898,0.1244 -31.364338,0.016 -31.882298,-0.5027 z m 60.904878,-1.01232 c 8.18642,-1.4845 18.33708,-9.36152 21.09628,-16.371 1.8106,-4.59966 2.89678,-8.50456 3.59068,-12.90892 0.31616,-2.00668 0.76428,-4.03074 0.99584,-4.49792 0.89174,-1.79912 1.7998,-11.1148 1.23004,-12.61858 -0.30426,-0.80298 -0.70016,-3.08988 -0.8798,-5.08198 -0.1796,-1.9921 -0.69116,-4.61148 -1.13672,-5.820837 -0.44554,-1.20936 -1.01574,-2.9132 -1.2671,-3.78634 -1.97118,-6.847098 -7.03318,-13.954438 -13.47284,-18.916656 -2.8408,-2.18904 -3.89878,-2.6489 -8.21786,-3.57188 -6.0194,-1.28634 -15.39488,-1.46876 -16.5418,-0.32184 -0.40564,0.40564 -1.05488,2.77754 -1.44274,5.270898 -0.57268,3.6813 -0.57816,4.68644 -0.0292,5.34788 0.3742,0.45086 0.43838,0.81452 0.1438,0.81452 -0.6773,0 -1.20746,1.97116 -0.80926,3.00884 0.20036,0.52218 0.7622,0.70236 1.6568,0.53134 0.7445,-0.1424 1.91066,-0.047 2.59146,0.21186 0.70968,0.26984 2.97886,0.2784 5.31844,0.0202 4.54652,-0.50196 6.27194,0.0344 9.41834,2.927758 2.15856,1.98498 4.80786,7.53 4.88934,10.233417 0.014,0.43656 0.31936,2.34156 0.68044,4.23334 0.92532,4.84778 0.98868,12.58108 0.1202,14.66738 -0.38988,0.93654 -0.70888,2.85784 -0.70888,4.26958 0,2.89192 -1.26918,7.64784 -2.57264,9.6403 -1.91232,2.92314 -2.23252,3.47258 -2.5222,4.3277 -0.1658,0.48972 -1.24566,1.5446 -2.3995,2.34422 l -2.0979,1.45384 -28.76766,-0.0476 c -24.959898,-0.0412 -28.807498,0.0562 -29.068638,0.73682 -0.4742,1.23574 0.57882,2.65894 2.18996,2.95982 1.68466,0.31462 9.67712,0.0398 10.0629,-0.34588 0.39634,-0.39636 5.635983,0.28938 6.205663,0.81216 0.41352,0.37946 -2.51506,0.31172 -4.800143,-0.111 -0.25818,-0.0478 -0.58848,-0.0368 -0.734,0.0244 -0.92378,0.38878 -10.09586,0.41634 -11.50938,0.0346 l -1.7198,-0.46446 v 5.46948 c 0,3.89408 0.1906,5.53904 0.66146,5.7109 1.49438,0.54538 56.760338,0.37326 59.846558,-0.1864 z M 99.961535,145.83429 c 0.242865,-0.24284 1.608695,-0.21538 3.035215,0.061 l 2.59368,0.50256 -3.03522,-0.061 c -1.66936,-0.0336 -2.836515,-0.25972 -2.593675,-0.50256 z m 6.951815,0.1874 c 0,-0.1828 2.14312,-0.37844 4.7625,-0.43492 2.61938,-0.0564 4.76232,0.067 4.76208,0.2742 -2.2e-4,0.20728 -2.14334,0.40298 -4.7625,0.4349 -2.61914,0.032 -4.76208,-0.0914 -4.76208,-0.27418 z m 10.23482,0.1236 c 0.44584,-0.44582 10.31748,-0.73812 10.57966,-0.31326 0.1378,0.22314 -2.2441,0.44266 -5.29292,0.4878 -3.04884,0.0452 -5.42786,-0.0334 -5.28674,-0.1746 z m 11.995,-0.33778 c -0.002,-0.23664 1.66098,-0.3557 3.69696,-0.26458 2.03598,0.091 3.70286,0.3474 3.70418,0.56954 0.001,0.22214 -1.66232,0.3412 -3.69696,0.26458 -2.03464,-0.0766 -3.70152,-0.3329 -3.70418,-0.56954 z m 7.93268,0.1656 c 0,-0.29104 0.41672,-0.53094 0.92604,-0.5331 1.43326,-0.006 6.7354,-4.49236 8.55372,-7.23752 0.89802,-1.35574 1.63274,-2.19432 1.63274,-1.86348 0,0.97494 -3.05086,5.49822 -4.13888,6.13642 -0.55064,0.323 -2.02352,1.36118 -3.27304,2.30706 -2.27642,1.72324 -3.70058,2.18144 -3.70058,1.19062 z m 11.1125,-10.9657 c 0,-0.66582 1.51256,-1.98564 1.86812,-1.63008 0.1402,0.1402 -0.22268,0.68736 -0.80654,1.21576 -0.58386,0.5284 -1.06158,0.71484 -1.06158,0.41432 z m 1.05834,-2.95138 c 0,-0.37836 0.22384,-0.91414 0.49744,-1.19062 0.27358,-0.2765 0.74236,-1.69334 1.0417,-3.14854 l 0.54428,-2.64584 -0.28198,2.89718 c -0.1552,1.59346 -0.50274,3.16318 -0.77254,3.48828 -0.2698,0.3251 -0.33386,0.74776 -0.1424,0.93926 0.1916,0.1916 0.0704,0.3482 -0.26918,0.3482 -0.33954,0 -0.61736,-0.30956 -0.61736,-0.68792 z m 1.92274,-8.9514 c 0.21872,-0.35392 0.56258,-1.48502 0.76412,-2.51354 l 0.36642,-1.87006 0.0608,1.67652 c 0.0714,1.9675 -0.37658,3.35056 -1.08532,3.35056 -0.27708,0 -0.32482,-0.28956 -0.106,-0.64348 z m 0.7515,-5.17736 c -0.008,-0.43656 0.3485,-1.83178 0.79036,-3.1005 0.44184,-1.26874 0.651,-2.78682 0.46476,-3.37356 -0.24046,-0.75764 -0.1522,-0.95166 0.30428,-0.66948 0.41846,0.2586 0.53256,1.08714 0.32686,2.37348 -0.35026,2.19048 -1.86572,6.02284 -1.88626,4.77006 z m 0.60824,-9.66006 c -0.6863,-0.82694 -0.68292,-4.18932 0.004,-3.76492 0.26422,0.1632 0.41416,0.80994 0.3332,1.43698 -0.081,0.62706 0.0478,1.4536 0.28632,1.83676 0.59156,0.95062 0.0876,1.34776 -0.6233,0.49118 z m -0.90124,-5.68576 c -0.1986,-0.62596 -0.24214,-1.25716 -0.0966,-1.40268 0.1456,-0.1456 0.42712,0.24756 0.6258,0.8735 0.1986,0.62596 0.24214,1.25716 0.0966,1.40268 -0.1456,0.1456 -0.42712,-0.24756 -0.6258,-0.8735 z m -0.75196,-2.954517 c 0.0254,-0.61644 0.1508,-0.74184 0.3197,-0.3197 0.1528,0.38198 0.134,0.838397 -0.0418,1.014237 -0.1758,0.1758 -0.3009,-0.1366 -0.27792,-0.694537 z m -1.3128,-3.5522 c -0.55354,-1.2235 -1.319,-3.05798 -1.70104,-4.07662 -0.71186,-1.89808 -5.13604,-6.349998 -6.31044,-6.349998 -0.69182,0 -3.42434,-2.0689 -2.77234,-2.09906 0.86258,-0.0398 4.86154,2.36954 6.75728,4.07138 1.11796,1.00362 2.32216,2.577738 2.67602,3.498078 0.35384,0.92034 1.10888,2.68368 1.67782,3.91852 0.56894,1.23482 0.9545,2.47398 0.8568,2.75368 -0.0978,0.2797 -0.63056,-0.4925 -1.1841,-1.71598 z M 136.01753,83.580995 c 0,-0.2638 0.47624,-0.35508 1.05832,-0.20286 0.58208,0.1522 1.05834,0.36804 1.05834,0.47962 0,0.1116 -0.47626,0.20286 -1.05834,0.20286 -0.58208,0 -1.05832,-0.21582 -1.05832,-0.47962 z m -3.8034,-0.41102 c 0.382,-0.1528 0.8384,-0.134 1.01424,0.0418 0.1758,0.1758 -0.1368,0.30092 -0.69452,0.27794 -0.61646,-0.0254 -0.74184,-0.1508 -0.31972,-0.3197 z m -42.763278,-1.25196 c -0.7276,-0.2435 -2.75166,-0.84164 -4.49792,-1.32922 -1.74624,-0.48756 -3.65644,-1.1854 -4.24488,-1.55074 -0.58844,-0.36534 -2.05476,-0.83064 -3.25848,-1.034 -1.20374,-0.20338 -2.62728,-0.70216 -3.16346,-1.108418 -0.53616,-0.40626 -1.65322,-0.74622 -2.48236,-0.75548 -2.36622,-0.0264 -5.00844,-1.54922 -7.99414,-4.60728 -1.51316,-1.54984 -3.1283,-2.8179 -3.5892,-2.8179 -0.80766,0 -3.57788,-2.83366 -3.57788,-3.65982 0,-0.222 -0.56426,-0.66072 -1.25392,-0.97494 -0.81198,-0.36998 -2.07086,-2.2183 -3.57188,-5.24432 -1.27488,-2.57014 -2.4706,-4.79206 -2.65716,-4.93758 -0.63678,-0.4967 -4.15872,-8.54124 -4.15872,-9.49902 0,-0.52528 -0.35726,-1.81014 -0.79394,-2.85522 -0.64156,-1.53548 -0.69166,-2.58888 -0.26102,-5.48858 0.2931,-1.97364 0.6901,-4.65418 0.88222,-5.95678 0.1922,-1.3026 0.83022,-3.2076 1.41796,-4.23334 1.18192,-2.06264 4.02618,-5.915521 4.7421,-6.423701 0.25212,-0.179 0.73452,-0.8568 1.072,-1.5063 0.33748,-0.6495 1.92328,-1.8916 3.52402,-2.76022 1.60072,-0.86862 3.50572,-1.96528 4.23334,-2.437 2.15112,-1.39464 5.4264,-3.2297181 7.3747,-4.1319181 1.00016,-0.46314 2.57044,-1.41564 3.48954,-2.11666 0.91908,-0.70102 2.00118,-1.27458 2.40464,-1.27458 0.40346,0 1.9288,-0.4603 3.38964,-1.02288 4.84926,-1.86752 10.06606,-3.26720005 12.1953,-3.27204005 1.15634,-0.002 6.429523,-0.12820003 11.718178,-0.27902003 8.94002,-0.25494 9.65142,-0.20614 10.1233,0.69464008 0.27916,0.53288 0.47644,3.66706 0.43842,6.96484 -0.079,6.8581581 -0.44526,7.4977781 -4.29244,7.4977781 -3.2467,0 -7.518835,1.27078 -13.948258,4.149 -5.49024,2.457781 -6.629254,3.245307 -12.05504,8.334981 -2.2361,2.09758 -2.66568,3.41896 -0.71558,2.2011 0.72338,-0.451759 1.15192,-0.43782 1.74792,0.0568 0.53466,0.44372 0.90034,0.47616 1.13254,0.1004 9.146599,2.402914 2.514752,16.940292 -3.9652,16.90774 l 1.9908,2.14682 c 2.33906,2.52238 8.5571,7.1872 10.61048,7.96006 0.78896,0.29696 2.625103,1.0913 4.080303,1.76522 1.4552,0.6739 4.1905,1.8679 6.078415,2.6533 3.38828,1.4096 4.21636,2.058 4.23222,3.3139 0.004,0.35274 -1.72922,2.734 -3.85262,5.29166 -2.123395,2.55766 -4.861455,5.98112 -6.084575,7.607678 -1.77308,2.35794 -4.358423,4.48134 -5.028543,4.13008 -0.059,-0.031 -0.70272,-0.25552 -1.43032,-0.49902 z m 3.05726,-1.85596 c 1.650883,-1.1563 1.463923,-2.22232 -0.54372,-3.100298 -0.94588,-0.41366 -1.3626,-0.77006 -0.92604,-0.79202 0.43656,-0.022 1.41058,0.28198 2.1645,0.6754 1.324503,0.691138 1.451203,0.615138 3.754803,-2.25222 1.31122,-1.63214 3.624595,-4.44692 5.140855,-6.25508 l 2.75682,-3.28756 -3.33662,-1.54818 c -1.835135,-0.8515 -5.568975,-2.5362 -8.297458,-3.7438 -5.38512,-2.38338 -10.08444,-5.66402 -13.82456,-9.65102 l -2.38126,-2.53842 -14.2875,-0.1104 c -7.85812,-0.0608 -14.36932,0.0626 -14.46932,0.27414 -0.2958,0.62568 1.34398,4.31526 2.25326,5.0699 0.46144,0.38296 0.83898,1.04902 0.83898,1.48014 0,1.6577 3.74926,7.88084 5.29978,8.79676 0.86866,0.51312 1.5794,1.20182 1.5794,1.5304 0,0.96376 2.21836,3.0469 3.24468,3.0469 0.51894,0 1.60852,0.83492 2.4213,1.8554 2.23786,2.80972 5.8285,5.189 7.7485,5.13442 0.90486,-0.0258 2.39252,0.4151 3.30594,0.97962 0.9134,0.56452 2.41618,1.02638 3.3395,1.02638 0.92332,0 2.32396,0.476558 3.11254,1.058998 0.78858,0.58246 3.06488,1.39996 5.05844,1.81668 1.99356,0.41672 3.75966,0.89266 3.92466,1.05766 0.4631,0.4631 0.84982,0.36768 2.12252,-0.52376 z m -5.70308,-4.747578 c -2.37232,-0.67494 -8.1255,-2.59542 -10.51944,-3.5115 -0.69244,-0.26498 -1.153,-0.58778 -1.02342,-0.71736 0.2399,-0.2399 1.21996,0.0516 7.30952,2.17334 1.89176,0.65918 4.21076,1.35352 5.1533,1.54298 0.94256,0.1894 1.84958,0.56428 2.01562,0.83294 0.35926,0.5813 0.1556,0.55908 -2.93558,-0.3204 z m -14.81668,-5.05008 c -0.7276,-0.59012 -2.15634,-1.6633 -3.175,-2.38482 -4.6585,-3.29966 -5.52772,-4.0792 -8.48332,-7.60806 -1.72986,-2.06538 -3.2932,-4.34496 -3.4741,-5.06574 -0.181,-0.72076 -1.0173,-1.88974 -1.85866,-2.5977 -1.64066,-1.3805 -1.89214,-2.12742 -0.91882,-2.72896 0.38034,-0.23506 0.46722,-0.145 0.23014,0.23854 -0.22276,0.36044 0.2923,1.18246 1.24116,1.98088 0.89206,0.75064 1.62194,1.6746 1.62194,2.05328 0,0.8209 3.98594,6.23642 6.23988,8.47784 0.878,0.87312 2.51212,2.26042 3.63136,3.08288 1.11926,0.82244 3.30908,2.4298 4.86626,3.57186 1.5572,1.14208 2.5097,2.0712 2.11668,2.06474 -0.39304,-0.006 -1.30992,-0.4946 -2.03752,-1.08474 z m -18.52082,-21.6889 c 0,-0.30822 0.23812,-0.41322 0.52916,-0.23334 0.29104,0.1798 0.52916,0.43204 0.52916,0.5604 0,0.1284 -0.23812,0.23334 -0.52916,0.23334 -0.29104,0 -0.52916,-0.25218 -0.52916,-0.5604 z m -3.64822,-2.54218 c 0.35152,0.55484 0.45888,0.56436 0.4651,0.0412 0.006,-0.5159 0.26362,-0.54334 1.06644,-0.1136 0.84472,0.45208 1.05834,0.40242 1.05834,-0.24596 -0.06279,-0.974016 1.554165,-1.008138 1.5875,-0.2832 0,0.29104 0.35718,0.52916 0.79374,0.52916 0.43658,0 0.79376,-0.23812 0.79376,-0.52916 0.391353,-0.914182 1.566372,-0.416606 1.5875,0.32544 0,0.7845 0.108,0.78382 1.31688,-0.008 1.09558,-0.71786 1.5074,-0.75032 2.4504,-0.1932 0.90448,0.5344 1.1819,0.53606 1.37304,0.008 0.2762,-0.76266 1.73884,-0.90558 1.73884,-0.1698 2.418872,1.139039 4.274342,-0.908668 6.1376,0.06208 1.12274,0.59816 1.49332,0.62216 1.66602,0.1078 0.26336,-0.78442 1.72138,-0.89646 1.72138,-0.1322 0,0.29104 0.3572,0.52916 0.79376,0.52916 0.43656,0 0.79374,-0.23812 0.79374,-0.52916 0.192162,-0.753741 1.559146,-0.616601 1.5875,0 0,0.76318 1.45464,0.65252 1.73886,-0.1322 0.1878,-0.51836 0.50688,-0.50276 1.47526,0.072 0.87942,0.52202 1.29354,0.56018 1.43616,0.1324 4.918734,-1.949939 6.693689,-12.915661 -0.48582,-13.0574 -16.03992,-0.31642 -33.25216,-0.31678 -33.7636,-6.8e-4 -0.4669,0.28856 -0.46582,0.56014 0.004,1.12684 0.47344,0.57044 0.47344,0.92282 0,1.49328 -0.36212,0.43632 -0.4154,0.87286 -0.1282,1.05036 0.57262,0.3539 0.50552,6.62922 -0.081,7.5764 -0.23236,0.37522 0.0916,1.13138 0.7792,1.819 0.8407,0.84072 1.24238,0.98028 1.40626,0.4886 0.1846,-0.55376 0.31874,-0.54728 0.68644,0.033 z m 3.38362,-12.77238 c -35.468621,-22.173958 -17.734311,-11.086979 0,0 z m 3.175,0 c -37.585288,-22.173958 -18.792644,-11.086979 0,0 z m 6.87918,0 c -42.171408,-22.173958 -21.085704,-11.086979 0,0 z m 5.95312,0.10074 c -46.140155,-22.241118 -23.070077,-11.120559 0,0 z m 3.57188,-0.10074 c -48.521408,-22.173958 -24.260704,-11.086979 0,0 z m 3.175,0 c -50.638075,-22.173958 -25.319037,-11.086979 0,0 z m 3.30728,0.10074 c -52.842928,-22.241118 -26.421464,-11.120559 0,0 z m 3.3073,-0.10074 c -55.047795,-22.173958 -27.523897,-11.086979 0,0 z m -36.24218,5.23916 c 0.062,-2.46734 -0.61304,-3.25588 -1.10592,-1.29204 -0.37306,1.4864 0.1566,4.31656 0.70522,3.76798 0.191,-0.191 0.37134,-1.30518 0.4007,-2.47594 z m 0.25884,-3.885 c 0,-0.1284 -0.23812,-0.38054 -0.52916,-0.5604 -0.29104,-0.1798 -0.52916,-0.0748 -0.52916,0.23334 0,0.30822 0.23812,0.5604 0.52916,0.5604 0.29104,0 0.52916,-0.105 0.52916,-0.23334 z m 2.4305,-3.88126 c 1.25222,0.57054 2.86118,-0.1312 2.86118,-1.24784 0,-1.74488 9.0406,-12.100061 10.56396,-12.100061 0.29144,0 2.02236,-0.90904 3.8465,-2.02008 5.71854,-3.48304 12.72612,-6.8252781 15.75204,-7.5128181 1.60072,-0.36372 3.56526,-0.9931 4.36562,-1.39862 0.80036,-0.40552 1.4552,-0.52196 1.4552,-0.25876 0,0.2632 -0.65484,0.71234 -1.4552,0.9981 -2.99306,1.0686 -5.25642,1.72552 -5.94512,1.72552 -0.88868,0 -9.15496,4.2186381 -13.61336,6.9474781 -1.84064,1.1266 -3.58508,2.04836 -3.87652,2.04836 -1.45014,0 -9.50562,8.991261 -9.50562,10.609861 0,0.27644 -0.23814,0.50264 -0.52918,0.50264 -0.29104,0 -0.52916,0.47624 -0.52916,1.05832 0,1.20496 0.54934,1.35566 1.49488,0.41012 0.5115,-0.51148 0.88358,-0.5012 1.76424,0.0488 0.92602,0.57832 1.19132,0.57606 1.55816,-0.014 0.35926,-0.57718 0.6434,-0.58548 1.51658,-0.0444 0.86344,0.53514 1.2855,0.53514 2.14896,0 0.87318,-0.54118 1.1573,-0.53288 1.51658,0.0444 0.36986,0.5942 0.62922,0.5942 1.5875,0 0.9745,-0.60428 1.22194,-0.59182 1.65842,0.0836 0.45602,0.70554 0.57002,0.70554 1.02604,0 0.42414,-0.65624 0.69918,-0.67838 1.5875,-0.1278 0.86344,0.53514 1.2855,0.53514 2.14896,0 0.87318,-0.54118 1.1573,-0.53288 1.51658,0.0444 0.36986,0.5942 0.63788,0.5942 1.64048,0 0.94506,-0.5601 1.24904,-0.5704 1.43794,-0.0488 0.1318,0.3638 0.3983,0.6601 0.59232,0.65842 0.194,-0.0017 2.50778,-2.10006 5.14168,-4.66308 3.54078,-3.44548 5.74742,-5.11234 8.46666,-6.395541 6.104203,-2.88054 11.859418,-4.82836 15.268238,-5.16742 4.99382,-0.49674 5.07828,-0.58798 5.07828,-5.4853781 0,-2.92532 -0.1942,-4.2147 -0.635,-4.2147 -0.49388,0 -0.49388,-0.1412 0,-0.635 0.34924,-0.34926 0.635,-1.1946 0.635,-1.87854 0,-1.24324 -0.002,-1.2435 -6.4823,-1.13956 -3.565255,0.0572 -7.672915,0.3141 -9.128115,0.57096 -1.455203,0.25684 -4.193643,0.5473 -6.085423,0.64546 -4.23914,0.21996 -13.9614,3.35794 -17.34254,5.59752 -1.32994,0.8809 -2.63814,1.6016601 -2.90712,1.6016601 -0.26898,0 -1.24018,0.535279 -2.15824,1.189518 -1.98262,1.41292 -4.48412,2.86438 -5.77022,3.3481 -0.50932,0.1916 -0.92604,0.55866 -0.92604,0.81576 0,0.2571 -0.36052,0.46744 -0.80118,0.46744 -1.24302,0 -4.37812,2.24742 -4.98266,3.57188 -0.29892,0.65484 -0.7867,1.19062 -1.08398,1.19062 -0.29728,0 -0.54052,0.357201 -0.54052,0.793761 0,0.43656 -0.1876,0.79374 -0.41694,0.79374 -0.2293,0 -1.40814,1.50764 -2.61962,3.35032 -1.56542,2.38098 -2.11324,3.69246 -1.89346,4.53288 0.20382,0.77942 0.48762,1.0042 0.83246,0.65936 0.34484,-0.34484 0.94676,-0.33024 1.76556,0.0428 z M 88.739892,6.4057379 c -0.1344,-0.21828 0.50646,-0.43702 1.42398,-0.4861 1.35242,-0.0724 1.46788,-0.004 0.6099,0.35968 -1.37882,0.58484 -1.738,0.60716 -2.03388,0.1264 z m 4.41514,-0.68252 c 1.644583,-0.71554 6.879168,-1.02138 6.879168,-0.4019 0,0.25086 -0.773905,0.41998 -1.719805,0.37584 -0.94588,-0.0442 -2.79134,0.0732 -4.10104,0.26068 -1.993843,0.2855 -2.166023,0.24732 -1.058323,-0.23462 z M 130.99715,57.209717 c -1.16048,-0.1182 -2.37654,-0.4363 -2.70238,-0.70672 -0.32582,-0.2704 -1.34732,-0.34066 -2.27002,-0.1562 -1.15994,0.23198 -1.95972,0.0802 -2.5918,-0.49182 -0.5028,-0.45502 -2.22274,-0.99472 -3.8221,-1.1993 -1.59936,-0.2046 -3.55092,-0.6968 -4.33684,-1.09378 -0.78592,-0.39698 -2.26014,-0.7218 -3.27606,-0.7218 -1.01592,0 -1.9943,-0.23812 -2.17418,-0.52916 -0.1798,-0.29104 -0.77574,-0.52916 -1.32414,-0.52916 -0.5484,0 -1.31662,-0.45618 -1.70714,-1.01374 -0.39054,-0.55756 -1.53514,-1.22648 -2.54356,-1.48648 -1.2701,-0.3275 -1.8839,-0.81718 -1.99754,-1.59368 -0.0902,-0.6165 -0.50696,-1.40548 -0.92606,-1.7533 -0.41908,-0.34782 -0.76198,-1.0521 -0.76198,-1.56508 0,-0.51296 -0.595295,-1.32274 -1.322915,-1.79948 -0.92074,-0.60328 -1.3229,-1.34572 -1.3229,-2.4421 0,-0.86642 -0.1802,-1.5753 -0.40034,-1.5753 -0.22018,0 -0.70372,-0.97214 -1.07454,-2.16028 -0.60866,-1.95024 -0.56718,-2.33344 0.4266,-3.94142 0.60544,-0.97964 1.56524,-1.92858 2.13288,-2.10874 0.56762,-0.1802 1.032065,-0.668 1.032065,-1.08412 0,-0.9869 3.62385,-4.99294 4.51659,-4.99294 0.9624,0 4.12702,-1.71514 4.63782,-2.51356 0.23274,-0.3638 0.89002,-0.66144 1.46064,-0.66144 0.94036,0 5.18582,2.6291 7.5089,4.65008 1.133,0.98566 1.20338,2.92766 0.1382,3.81174 -1.4267,1.18404 -0.23056,1.63602 1.35042,0.51028 1.07216,-0.76346 1.45546,-0.86398 1.24968,-0.3277 -0.4743,1.23602 0.73254,1.55728 1.46204,0.38918 0.66058,-1.05776 0.66738,-1.0575 1.86938,0.0718 0.66352,0.62334 1.2064,0.8537 1.2064,0.51194 0,-0.76138 1.95778,-0.83346 2.2085,-0.0814 0.1164,0.34912 0.70464,0.30234 1.66374,-0.1322 1.297,-0.58776 1.45474,-0.90544 1.25358,-2.52446 -0.29126,-2.3441 -2.49456,-8.466661 -3.04688,-8.466661 -0.22872,0 -0.73052,-0.30658 -1.1151,-0.68128 -1.4861,-1.44786 -4.5573,-2.97334 -8.19818,-4.07212 -2.08712,-0.62986 -3.93348,-1.50666 -4.103,-1.94844 -0.45296,-1.18038 1.17782,-7.0513581 2.51148,-9.0416781 1.41174,-2.1068 2.77732,-2.61826 4.01066,-1.5021 0.51138,0.4628 1.65578,0.84144 2.54312,0.84144 0.88732,0 1.89706,0.34188 2.24384,0.75974 0.3468,0.41786 1.28586,0.90366 2.0868,1.07958 0.80096,0.176 2.18514,0.98556 3.07596,1.7992 0.89082,0.81364 2.73396,2.13236 4.09588,2.9305 1.36192,0.7981391 2.60544,1.8492781 2.76338,2.3358581 0.26258,0.80888 1.81542,4.31712 2.90634,6.56606 0.24514,0.50538 0.44572,1.65214 0.44572,2.548341 0,0.8962 0.22826,2.056 0.50726,2.5773 0.279,0.52132 0.57666,2.17152 0.66146,3.66712 0.0924,1.62924 0.40166,2.72018 0.77156,2.72154 0.33954,0.0013 0.71752,0.29992 0.83998,0.66372 0.1652,0.49102 0.41524,0.5107 0.97014,0.0764 0.41112,-0.32178 1.3021,-0.72112 1.97994,-0.88744 0.96684,-0.23724 1.16378,-0.1236 0.91392,0.52758 -0.26804,0.69852 -0.1874,0.72126 0.50862,0.1436 0.72466,-0.60142 0.5787,-0.82536 -1.1785,-1.80792 -2.40074,-1.3424 -2.7729,-2.9588 -1.36646,-5.93508 0.95298,-2.016681 0.9953,-2.038261 3.86634,-1.97246 5.36992,0.123 9.20788,1.53888 9.85734,3.63632 0.1804,0.5828 1.1697,1.81512 2.19828,2.73846 l 1.87018,1.67882 -0.90912,2.38054 c -0.50004,1.3093 -1.2538,2.66658 -1.67504,3.01618 -0.42126,0.34962 -0.7659,1.15418 -0.7659,1.78794 0,0.63376 -0.28674,1.43902 -0.63718,1.78946 -0.35046,0.35046 -0.58336,1.43616 -0.5176,2.4127 0.072,1.06896 -0.2009,2.04148 -0.68574,2.44386 -0.44292,0.3676 -0.80532,1.2404 -0.80532,1.93958 0,0.86906 -0.4185,1.43034 -1.32292,1.7742 -0.7276,0.27662 -1.32292,0.86604 -1.32292,1.3098 0,0.44378 -0.21036,0.80686 -0.46744,0.80686 -0.2571,0 -0.59124,0.47338 -0.74254,1.05196 -0.1514,0.57858 -0.89346,1.28706 -1.64922,1.5744 -0.75578,0.28734 -1.37412,0.76098 -1.37412,1.0525 0,0.92024 -2.27678,2.07052 -5.82806,2.94448 -1.8878,0.46458 -4.20896,1.24404 -5.15814,1.73214 -1.39704,0.71842 -1.92154,0.7652 -2.75358,0.24558 -0.64772,-0.4045 -1.1463,-0.4502 -1.34818,-0.1236 -0.1762,0.28508 -0.723,0.4783 -1.21516,0.42938 -0.49214,-0.049 -1.84428,-0.1858 -3.00476,-0.30402 z m 3.69746,-1.7237 c 0.46376,-0.75038 2.25036,-0.65722 2.51312,0.131 0.1678,0.50358 0.64906,0.45296 2.02848,-0.21346 0.99462,-0.4805 3.11808,-1.1611 4.71882,-1.51242 3.7778,-0.82914 5.47214,-1.8912 5.12638,-3.21334 -0.1458,-0.55778 -0.0764,-0.89752 0.1542,-0.75498 -23.38658,-17.373802 -25.05389,-6.818906 -25.5936,-17.4769 -0.0528,-1.88632 -9.5903,-0.91356 -8.58728,-1.37054 0.6646,-0.30282 1.63436,-1.27174 2.15504,-2.15318 0.94482,-1.59944 0.94376,-1.60496 -0.53262,-2.78218 -0.81362,-0.64876 -2.53428,-1.73922 -3.8237,-2.42326 -2.15628,-1.1439 -2.38464,-1.1718 -2.8458,-0.34774 -0.27576,0.49278 -0.93666,0.89598 -1.46864,0.89598 -0.53198,0 -1.26628,0.36032 -1.6318,0.80072 -0.3655,0.44042 -0.9383,0.73806 -1.27286,0.66146 -0.67544,-0.1546 -4.54216,3.5033 -4.54216,4.2969 0,0.2765 0.1786,0.6026 0.39686,0.72466 0.21828,0.122 0.0728,0.1392 -0.3235,0.038 -0.4359,-0.1112 -0.60826,0.1084 -0.43646,0.556 0.1938,0.50512 -0.012,0.66252 -0.64835,0.49606 -1.382905,-0.36162 -2.758805,2.01758 -2.349685,4.06312 0.49168,2.45838 1.96002,1.91388 2.00398,-0.74314 0.0222,-1.34588 0.311745,-2.16202 0.827975,-2.33436 0.62398,-0.2083 0.6645,-0.105 0.1894,0.48254 -0.840635,1.03984 -0.66657,5.24544 0.21708,5.24544 0.37896,0 1.25764,0.37256 1.9526,0.8279 1.53526,1.00596 2.33718,4.59122 1.30506,5.83484 -0.36758,0.44292 -0.44944,0.76366 -0.1818,0.71278 1.23436,-0.23478 1.95332,0.1722 0.8521,0.48242 -1.8273,0.51466 -1.43692,1.38006 0.70746,1.56824 1.44736,0.127 2.0064,0.47466 2.39132,1.48706 0.27628,0.7267 0.75134,1.16738 1.05568,0.97928 0.30434,-0.188 0.84056,-0.1066 1.19162,0.1812 1.09466,0.8971 3.2841,0.9778 3.2841,0.121 0,-0.42344 -0.5953,-0.93548 -1.3229,-1.13788 -1.31288,-0.36518 -1.3115,-0.36838 0.1818,-0.42072 1.09126,-0.0382 1.58168,0.24144 1.78474,1.0179 0.2555,0.97702 0.3362,0.99378 0.92272,0.1916 0.5242,-0.71686 1.01712,-0.79046 2.6725,-0.39896 1.11636,0.264 2.14632,0.8326 2.28878,1.26354 0.20078,0.60732 0.091,0.65196 -0.48848,0.1984 -1.10432,-0.86428 -2.91116,-1.19942 -3.73164,-0.69216 -1.3017,0.8048 0.73084,2.09846 3.6875,2.347 2.7636,0.23232 3.51116,-0.30126 1.81018,-1.292 -0.8775,-0.5111 -0.87662,-0.54022 0.018,-0.55546 0.5187,-0.008 1.13432,0.50088 1.36806,1.13272 0.2816,0.76122 0.55418,0.93974 0.80794,0.52916 0.54196,-0.87694 2.2129,-0.76828 3.18852,0.20732 0.74984,0.74984 0.93708,0.74984 2.00762,0 1.52494,-1.0681 6.67044,-1.08968 8.6899,-0.0364 1.35356,0.70594 1.39168,0.79084 0.3563,0.79376 -0.63766,0.0016 -1.3198,-0.25628 -1.51584,-0.5735 -0.2212,-0.3579 -1.55096,-0.48568 -3.50446,-0.33676 -5.75178,0.43848 -5.41682,2.59286 0.45992,2.95812 0.63768,0.0396 1.30656,-0.166 1.48644,-0.4571 z m 5.55624,-3.175 c 0.7276,-0.56914 2.05132,-1.04008 2.94158,-1.04656 0.89026,-0.006 2.08088,-0.36138 2.64582,-0.7887 0.56496,-0.4273 1.38438,-0.78292 1.82094,-0.79026 0.43656,-0.008 0.0794,0.45978 -0.79376,1.03802 -0.87312,0.57826 -2.1828,1.06136 -2.9104,1.0736 -0.72762,0.012 -1.91824,0.36256 -2.64584,0.77848 -1.93014,1.10338 -2.59476,0.93722 -1.05834,-0.26458 z m -30.12072,-3.48368 c 0.0254,-0.61644 0.1508,-0.74184 0.3197,-0.3197 0.1528,0.38198 0.134,0.8384 -0.0418,1.01424 -0.1758,0.1758 -0.30092,-0.1366 -0.27794,-0.69454 z m -0.86198,-1.76318 c -0.2765,-0.2664 -1.09802,-0.59116 -1.82562,-0.72168 -1.15058,-0.2064 -1.1073,-0.24672 0.33208,-0.3094 0.91024,-0.0396 1.95142,0.28514 2.31374,0.7217 0.70752,0.8525 0.014,1.11384 -0.8202,0.30938 z m -5.11348,-17.49152 c 0.75852,-0.86444 1.47482,-1.47604 1.59176,-1.3591 0.3553,0.3553 -1.70012,2.89638 -2.3572,2.91418 -0.33754,0.01 0.006,-0.69064 0.76544,-1.55508 z m 3.08248,-2.1219 c 0.61464,-0.24834 1.56714,-1.01982 2.11666,-1.71438 1.0888,-1.37618 2.85122,-2.2753 2.85122,-1.45456 0,0.2819 -0.2535,0.51256 -0.56334,0.51256 -0.30984,0 -1.16444,0.71438 -1.89912,1.5875 -0.75934,0.90242 -1.8293,1.57302 -2.47938,1.55396 l -1.14358,-0.0336 z m 19.25538,26.76898 c 0,-0.93228 -1.60062,-1.57808 -2.26488,-0.91382 -0.27522,0.27522 -0.34042,0.75928 -0.1448,1.07568 0.51542,0.83398 2.40976,0.70674 2.40976,-0.1618 z m 25.99386,-6.037 c 0.24164,-0.65318 0.22236,-1.16336 -0.044,-1.16336 -0.79622,0 -2.16756,1.63976 -1.8292,2.18726 0.48092,0.77814 1.39046,0.28096 1.87316,-1.0239 z m 1.14428,-4.444 c -1.40313,-16.566956 -16.35419,-11.716032 -29.98866,-11.2928 -6.29995,8.829669 33.14392,16.212349 29.98866,11.2928 z m 2.18434,0.44054 c -0.1456,-0.37928 0.193,-1.25476 0.7524,-1.94554 0.76658,-0.9467 0.88174,-1.47256 0.46766,-2.1356 -0.41634,-0.66666 -0.2726,-1.2683 0.59364,-2.48482 0.62864,-0.88284 1.14298,-2.0079 1.14298,-2.50014 0,-0.49222 0.445,-1.52702 0.9889,-2.29956 1.8385,-2.6113 1.80688,-3.40154 -0.20022,-5.00302 -1.01586,-0.81058 -1.84702,-1.8541 -1.84702,-2.31892 0,-1.13038 -1.54458,-2.24282 -3.175,-2.28666 -0.7276,-0.02 -1.9007,-0.35566 -2.6069,-0.74688 -0.85604,-0.47422 -1.7852,-0.56752 -2.7879,-0.27996 -0.82716,0.23724 -1.6451,0.38716 -1.8176,0.33316 -0.1726,-0.054 -0.67104,0.79782 -1.10782,1.8929 -0.87266,2.18794 -0.32948,3.5652 1.40606,3.5652 1.0505,0 3.20642,1.87498 3.2181,2.79874 0.006,0.3978 0.1988,0.3398 0.51076,-0.153 0.44276,-0.6992 0.67818,-0.68726 1.97626,0.1002 1.37554,0.83452 1.47524,1.13388 1.49772,4.49792 0.014,1.98216 -0.179,3.88284 -0.42712,4.22374 -0.32352,0.44442 -0.1058,0.52966 0.76966,0.3012 1.16292,-0.30352 1.17692,-0.27462 0.29482,0.6086 -1.03936,1.04068 -1.05524,1.1317 -0.59702,3.42272 0.181,0.90478 0.52774,1.52224 0.77064,1.37212 0.24288,-0.1502 0.32254,-0.58326 0.177,-0.96254 z m -0.44476,-6.03552 c -0.40696,-1.28222 0.4543,-4.06808 1.77784,-5.7507 1.41276,-1.79604 1.4351,-0.60822 0.0244,1.29978 -0.5885,0.79598 -1.10334,2.33416 -1.14408,3.41816 -0.0826,2.1969 -0.22022,2.41284 -0.65822,1.03276 z m 0.7163,-10.40276 c -1.00074,-1.09974 -2.57552,-2.12406 -3.7529,-2.4411 -1.11574,-0.30044 -2.02862,-0.76074 -2.02862,-1.0229 0,-0.26216 1.0342,-0.1242 2.29824,0.30644 2.23884,0.76284 6.14356,4.11642 5.51952,4.74044 -0.1716,0.1716 -1.08788,-0.54072 -2.03624,-1.58288 z m -8.16278,-4.0049 c -0.1798,-0.29104 -0.089,-0.52916 0.20212,-0.52916 0.29104,0 0.67634,0.23812 0.85622,0.52916 0.1798,0.29104 0.089,0.52918 -0.20214,0.52918 -0.29104,0 -0.67632,-0.23814 -0.8562,-0.52918 z m -44.06852,19.02948 c -0.21708,-2.6923 -3.39306,-4.88556 -4.164275,-2.87578 -0.185,0.48222 0.24828,1.32528 1.074935,2.0914 0.76172,0.70594 1.38494,1.66956 1.38494,2.14136 0,0.53718 0.34614,0.7862 0.92604,0.6662 0.70398,-0.1456 0.89064,-0.63084 0.77836,-2.02318 z m 31.10394,-12.02482 c 0,-0.22204 0.53578,-0.63876 1.19062,-0.92606 0.9823,-0.43094 1.17082,-0.8927 1.0774,-2.63902 l -0.1132,-2.11666 0.55812,1.84672 c 0.40644,1.34484 0.3913,2.11386 -0.0558,2.82966 -0.76336,1.22234 -0.30434,1.78178 0.74644,0.90972 0.43084,-0.35756 1.00696,-0.51194 1.28024,-0.34302 0.2733,0.169 0.61158,0.008 0.75172,-0.35694 0.41102,-1.07108 -0.006,-4.96372 -0.66438,-6.19278 -0.33332,-0.62282 -0.54324,-1.65518 -0.46648,-2.29414 0.0768,-0.638941 -0.146,-1.681841 -0.4951,-2.317561 -0.34904,-0.6357 -0.63462,-1.5194 -0.63462,-1.96376 0,-0.44436 -0.50684,-1.28012 -1.12632,-1.85724 -0.6238,-0.58116 -0.99146,-1.40076 -0.82406,-1.83698 0.20582,-0.53634 -0.57452,-1.34436 -2.44556,-2.53236 -1.5113,-0.959578 -3.46218,-2.4032981 -4.33532,-3.2082581 -0.87312,-0.80496 -1.94468,-1.46624 -2.38124,-1.46952 -0.43656,-0.004 -1.50812,-0.47734 -2.38126,-1.05352 -0.88192,-0.58196 -2.01594,-0.91202 -2.55146,-0.74256 -0.55428,0.1754 -1.41136,-0.0998 -2.01668,-0.64768 -0.90376,-0.8179 -1.1218,-0.84336 -1.54098,-0.18 -0.76696,1.21376 -0.34074,1.72564 2.1771,2.61462 4.50646,1.59108 8.44994,3.7634601 11.093,6.1108781 1.46516,1.30126 2.32346,2.36596 1.90734,2.36596 -0.41612,0 -1.45094,-0.79082 -2.29956,-1.75736 -0.84864,-0.96654 -1.88534,-1.91752 -2.30378,-2.1133 -0.41844,-0.195799 -1.118,-0.554958 -1.55456,-0.798198 -2.72956,-1.5208201 -5.31814,-2.7394801 -5.81894,-2.7394801 -0.3202,0 -1.52396,-0.45502 -2.67504,-1.01116 l -2.09286,-1.01116 -0.2948,1.40804 c -0.1622,0.77442 -0.51852,1.82152 -0.79198,2.32688 -0.71214,1.3160801 -0.61342,3.5838981 0.1642,3.7737981 3.86178,0.94304 8.53196,2.90608 10.5384,4.42966 2.70212,2.05184 4.49422,5.688921 5.0386,10.225781 0.21094,1.7581 0.59664,2.56786 1.41836,2.97774 1.44412,0.72036 1.92236,0.7923 1.92236,0.28924 z m 1.57588,-7.40154 c -0.006,-0.80036 -0.48264,-2.493241 -1.05834,-3.761941 -1.12958,-2.48938 -1.35506,-4.30784 -0.53414,-4.30784 0.2819,0 0.38372,0.3357 0.22628,0.74598 -0.1574,0.4103 0.096,1.48512 0.56312,2.3885 1.03868,2.0086 1.91332,6.390521 1.27554,6.390521 -0.25346,0 -0.46608,-0.65484 -0.47246,-1.45522 z m -9.81134,5.0271 -1.5542,-1.7198 1.71978,1.55422 c 1.6031,1.44874 1.96302,1.88536 1.55422,1.88536 -0.091,0 -0.86498,-0.7739 -1.7198,-1.71978 z m 1.57052,-3.175 -1.00806,-1.19064 1.19062,1.00806 c 1.1189,0.94732 1.43152,1.3732 1.00806,1.3732 -0.1004,0 -0.6362,-0.53578 -1.19062,-1.19062 z m -5.51602,-2.26108 c -0.55922,-0.67382 -0.52648,-0.75124 0.1998,-0.47256 0.47772,0.1834 0.8686,0.54596 0.8686,0.80588 0,0.68048 -0.30632,0.58492 -1.06838,-0.33332 z m -2.10662,-1.31076 c -0.47694,-0.30822 -0.5422,-0.5162 -0.1636,-0.52106 0.34662,-0.004 0.7774,0.23002 0.95726,0.52106 0.40604,0.65698 0.22286,0.65698 -0.79374,0 z m 0.2684,-3.698321 c -0.1854,-0.29998 0.027,-0.38868 0.49794,-0.20798 0.91674,0.35178 1.08448,0.73108 0.3233,0.73108 -0.27386,0 -0.64342,-0.2354 -0.82124,-0.5231 z m 13.8428,-11.4713381 c -0.194,-0.194 -0.35278,-1.15164 -0.35278,-2.12802 0,-1.36768 0.29596,-1.91008 1.28916,-2.36262 0.70904,-0.32306 1.66154,-0.4445 2.11666,-0.26984 1.1999,0.46044 1.0239,1.93826 -0.23082,1.93826 -0.58798,0 -1.05834,0.35276 -1.05834,0.79374 0,1.50646 1.84976,0.60572 2.8416,-1.38372 0.88792,-1.78096 2.02648,-1.56766 3.14924,0.58998 l 0.96376,1.85208 -0.33328,-1.66942 c -0.36892,-1.84792 0.23964,-2.54438 1.79258,-2.0515 0.61776,0.196 1.09186,0.96272 1.24824,2.01854 0.38818,2.62086 0.014,3.0253 -2.7955,3.0253 -1.54096,0 -2.65042,-0.26098 -2.81202,-0.66146 -0.21352,-0.52918 -0.27526,-0.52918 -0.30868,0 -0.0442,0.70016 -4.84914,0.96936 -5.50982,0.30868 z"
       id="path780"
       sodipodi:nodetypes="cscssssssssssssssssssscccccsssscssssssssscscscsssscscccscsccscscccscccsscscsccccccccscscssssssssscssccsssccssccssscsscsccssccccscscsssssssscssscsssssscsscccsssscssscssscscccsscsssccsscsssssccsssccssccccsccsscssscccsssssscsssssccsssccssscsccscssscscsscssscccccscccccccsssccccccscssssccccccccccccccccccccsscscssscsssssscsssssscsccscccscscsccsscsscsscscsccsscssscsscccccccssccssscsssscssccssssssscssssscssscsscsscsscssscsssssssccssssssccsccssssssssscsssssscssccsscccssssssccsccccscscscsccssccsccscsscssscscssscsscccscsccccsccccccscsccscccssssccccsccccsscccccccsssssscsscssccccccscccccsscccssscsscscscccsscccsccscscccccssssscsscscsssssssccscssscccssccscscsssscsssscssscccccssssssscsssscscsssss" />
  </g>
  <g
     inkscape:groupmode="layer"
     id="layer2"
     inkscape:label="Hand Drawing"
     style="display:inline">
    <g
       id="g13552">
      <g
         id="g3576" />
    </g>
    <path
       style="fill:none;stroke:#000000;stroke-width:0.264583px;stroke-linecap:butt;stroke-linejoin:miter;stroke-opacity:1"
       d="m 114.28779,12.646446 c 8.20995,2.45382 15.62789,5.228837 16.93005,14.311785 0.13486,0.940697 0.29595,4.748745 0.86844,5.381554 0.38462,0.425151 3.16776,-0.08259 3.74132,-0.08259 6.78061,0 4.80124,-2.796717 4.80124,-7.726993 0,-4.680903 -2.23756,-9.669128 -4.62852,-13.255498 -1.09737,-1.6460084 -16.65416,-10.043738 -17.6933,-9.0015039 -0.77971,0.7820326 -1.40145,1.7717367 -1.90851,2.8666936 -1.09054,2.354961 -2.11072,5.1967853 -2.11072,7.5065573 z"
       id="path10030"
       sodipodi:nodetypes="ssssssssss" />
    <path
       style="fill:none;stroke:#000000;stroke-width:0.264583px;stroke-linecap:butt;stroke-linejoin:miter;stroke-opacity:1"
       d="m 156.02705,45.092741 c -8.46378,9.922421 -16.4506,13.059989 -28.54089,10.542688 -5.71711,-0.942794 -11.02929,-1.561349 -15.94623,-3.487534 -4.91695,-1.926186 -7.54016,-4.58985 -10.07079,-7.419928 -2.530622,-2.830078 -5.290165,-7.793908 -3.848317,-11.44838 1.441848,-3.654472 5.252077,-7.411377 12.588447,-11.224355 0.7379,-0.383514 1.51102,0.750647 2.28433,1.135311 2.43565,1.21155 4.91521,2.514995 6.74126,4.194974 -3.77478,4.669979 -5.62015,5.728535 -4.17656,7.886326 0.6231,0.931376 4.46522,4.092673 7.22557,5.160651 2.7197,1.052245 5.77137,1.04108 8.68751,1.030936 3.91335,-0.01361 9.86007,0.556704 13.65774,-2.044891 2.92254,-2.002089 7.82194,-6.006693 5.2638,-9.232502 -0.61267,-0.708457 -1.80219,-1.232898 -2.89105,-1.848964 -1.08887,-0.616066 -2.07708,-1.323756 -2.28712,-2.398709 -0.10502,-0.537476 -0.0155,-1.166772 0.35324,-1.922331 0.13857,-0.283927 0.31484,-0.668741 0.53526,-1.062637 0.36614,-0.654307 0.85409,-1.333676 1.49336,-1.617317 0.89385,-0.396598 2.00349,0.13667 2.9224,0.256819 0.9189,0.120149 1.78277,0.274357 2.59212,0.461174 0.80935,0.186817 1.5642,0.406242 2.26508,0.656824 0.70087,0.250583 1.34778,0.532322 1.94125,0.843769 0.59347,0.311446 1.1335,0.652598 1.62064,1.022007 0.48714,0.369408 0.92139,0.767072 1.30327,1.19154 0.38188,0.424469 0.71141,0.875742 0.98911,1.352368 0.2777,0.476627 0.50358,0.978608 0.67817,1.504491 0.17459,0.525883 0.2979,1.07567 0.37046,1.647908 0.0726,0.572238 0.0944,1.166928 0.066,1.782618 -0.0284,0.615691 -0.10701,1.252383 -0.2353,1.908625 -0.12829,0.656242 -0.30625,1.332034 -0.53334,2.025925 -0.2271,0.693891 -0.50334,1.405882 -0.82817,2.13452 -0.32484,0.728639 -0.69827,1.473925 -1.11977,2.234409 -0.4215,0.760484 -0.89106,1.536166 -1.40815,2.325593 -0.51709,0.789428 -1.0817,1.592602 -1.6933,2.408072 z"
       id="path10950"
       sodipodi:nodetypes="ccssssscsasacsssssssssssssssssssscc" />
    <g
       id="g13256">
      <g
         id="g11195">
        <path
           style="fill:none;stroke:#000000;stroke-width:0.264583px;stroke-linecap:butt;stroke-linejoin:miter;stroke-opacity:1"
           d="m 126.45679,71.208325 c -2.29001,0.460962 -4.34761,6.914278 -4.54324,11.689121 -0.0861,2.101979 0.1886,3.878681 0.96318,4.675697 4.41768,4.545642 13.35423,-1.986994 18.32704,2.998721 6.981,6.999123 7.88822,20.885496 5.84113,32.561626 -1.75697,10.02134 -5.77188,18.70674 -15.01799,18.26819 -8.72376,-0.41377 -41.242004,-2.07111 -52.76903,0.0518 0.235617,7.99878 -1.4433,11.80672 0.646696,15.98414 5.249204,1.01349 13.843219,0.3883 20.766864,0.44459 6.48936,0.0528 13.32768,-0.2514 19.46848,-0.10017 16.20776,0.39915 29.31833,0.40489 38.95605,-12.67447 3.85571,-5.23258 5.83922,-9.75597 6.54906,-15.43469 0.55031,-4.40243 0.90631,-7.27404 1.45843,-11.69098 1.66322,-13.30579 -6.69656,-39.575095 -21.25014,-44.426286 -6.25258,-2.084191 -13.0655,-1.342961 -19.39653,-2.347269"
           id="path10952"
           sodipodi:nodetypes="csssssccasssssc" />
      </g>
    </g>
    <g
       id="g32213">
      <path
         style="fill:none;stroke:#000000;stroke-width:0.264583px;stroke-linecap:butt;stroke-linejoin:miter;stroke-opacity:1"
         d="m 110.21109,4.8004401 c 0.009,0.1872612 0.0163,0.377352 0.009,2.6172364 -0.007,2.2398845 -0.0644,3.4374225 -0.12914,4.4706325 -0.0648,1.03321 -0.13724,1.902093 -0.19513,2.471234 -2.41606,0.176044 -4.96036,0.590393 -7.52781,1.217548 -2.567463,0.627156 -5.158083,1.467118 -7.666792,2.494387 -2.508709,1.027269 -4.935506,2.241846 -7.175318,3.618231 -2.239812,1.376385 -4.292638,2.914579 -6.053406,4.589082 -1.760768,1.674503 -3.229477,3.485316 -4.301054,5.406939 -1.071576,1.921623 -1.746021,3.954056 -1.918258,6.071802 -0.172238,2.117745 0.15773,4.320802 1.094978,6.583671 0.937248,2.262869 2.481776,4.585551 4.738657,6.942547 1.472509,1.537829 3.210567,2.93504 5.110304,4.223857 1.899738,1.288817 3.961156,2.469238 6.080386,3.573486 2.119229,1.104248 4.29627,2.132323 6.427253,3.116446 2.13098,0.984123 4.21591,1.924294 6.15091,2.852736 L 94.257574,77.935087 m 0,0 c 0,0 -1.399123,2.908793 -2.943409,3.473164 -1.544286,0.564371 -7.083941,-1.186259 -10.526818,-2.326299 -4.318569,-1.430009 -8.8566,-3.373917 -12.378458,-5.747036 C 64.887031,70.961797 61.632477,68.26914 58.82442,65.548312 56.016362,62.827485 53.6548,60.078486 51.918925,57.592683 47.060639,50.622468 44.869389,44.252609 44.650123,38.512828 44.430857,32.773047 46.183574,27.663344 49.213223,23.213441 52.242872,18.763538 56.549453,14.973436 61.437912,11.872857 66.326371,8.7722774 71.79671,6.3612211 77.153874,4.6694101 85.26741,2.1071275 87.080535,2.1973984 94.162587,1.752016 97.281548,1.555868 100.20454,1.3250594 102.84982,1.2657884 m 0,0 c 2.64528,-0.059271 4.60857,-0.27914263 6.61667,0.2108599 0.22325,0.05833 0.46944,0.1139917 0.52851,0.379692 0.18009,0.8004385 0.16192,1.7952405 0.21609,2.9440998"
         id="path16696"
         sodipodi:nodetypes="ccscsssssssssssccczssscsssssccccc" />
      <path
         style="fill:none;stroke:#000000;stroke-width:0.264583px;stroke-linecap:butt;stroke-linejoin:miter;stroke-opacity:1"
         d="M 110.12924,5.3767736 C 101.59726,5.4084326 94.317163,5.0518438 86.70427,6.8565854 80.261293,8.3839822 74.173355,11.347464 68.426693,14.636957 c -4.157446,2.379797 -8.504878,5.235918 -11.549845,8.551677 -10.10077,10.999042 -5.348926,26.513143 3.062783,36.077075 3.490204,3.822789 7.996311,8.12297 13.739408,11.360663 5.743098,3.237694 13.125993,4.688105 20.578535,7.308715"
         id="path23156"
         sodipodi:nodetypes="caascsc" />
    </g>
    <path
       style="fill:none;stroke:#000000;stroke-width:0.264583px;stroke-linecap:butt;stroke-linejoin:miter;stroke-opacity:1"
       d="m 121.91355,82.897446 c 2.03266,0.072 12.60138,0.06796 14.41552,0.399365 3.62826,0.662815 5.17589,1.191842 7.66541,3.499717 4.97904,4.615745 6.80574,8.534504 8.07021,16.185532 1.26448,7.65103 0.64511,22.13946 -2.01909,29.0098 -2.6642,6.87034 -4.25589,11.29658 -11.0629,13.57025 -3.51117,1.1728 -8.47168,0.71997 -13.31008,0.56467 -4.8384,-0.1553 -11.47122,-0.14389 -16.98578,-0.0323 -10.457072,0.22316 -18.439042,-0.14707 -29.290028,-0.56504"
       id="path34941"
       sodipodi:nodetypes="csssssscc" />
    <path
       style="fill:none;stroke:#000000;stroke-width:0.264583px;stroke-linecap:butt;stroke-linejoin:miter;stroke-opacity:1"
       d="m 116.39851,5.1398937 c 2.20062,0.5162388 2.43222,0.6193934 3.8134,1.235268 1.18282,0.5274258 3.29048,1.2240875 4.19049,1.7640934 3.02542,1.8152534 6.4545,3.4663139 8.76511,6.1146959 1.06809,1.224222 1.6972,3.099256 2.37416,4.492649 0.67697,1.393394 1.11659,3.880841 1.35373,5.416968 0.23715,1.536126 0.91856,2.710232 0.66734,4.362653 -0.25136,1.65242 -0.94658,1.988697 -1.73514,3.730974"
       id="path40326"
       sodipodi:nodetypes="cssssssc" />
    <path
       style="fill:none;stroke:#000000;stroke-width:0.264583px;stroke-linecap:butt;stroke-linejoin:miter;stroke-opacity:1"
       d="m 145.60325,22.953396 c 3.55641,0.499317 10.97857,2.313918 12.60386,6.802959 0.66234,1.829379 -1.68306,3.534589 -2.17096,5.418012 -0.26179,1.010587 -0.15826,2.089874 -0.39309,3.107064 -0.30968,1.341449 -0.88394,2.912011 -1.33022,3.910116 -3.41557,5.983596 -7.9074,8.427157 -13.15094,10.301297 -2.30496,0.823838 -4.9042,0.387885 -7.34152,0.161943 -2.86661,-0.265738 -5.43024,0.566489 -8.10831,0.196083 -2.73395,-0.378134 -5.29367,-1.567832 -7.91241,-2.439414 -2.14344,-0.713389 -4.34157,-1.311311 -6.38113,-2.282619 -2.43287,-1.158612 -4.77774,-2.547493 -6.91125,-4.193507 -1.82645,-1.341211 -3.29448,-3.111679 -3.98633,-5.119162 -0.40196,-1.22791 -0.917031,-2.614175 -0.51425,-3.841815 0.92954,-2.833167 4.0359,-4.397694 6.2086,-6.439819 2.00254,-1.882193 4.55062,-3.82428 6.2783,-5.343991"
       id="path40364"
       sodipodi:nodetypes="caaacasaaaccaac" />
    <path
       style="fill:#ff0000;stroke-width:0.5"
       d="m 334,306.27996 c -19.66454,-4.16277 -48.87658,-14.82796 -64.75,-23.63994 -13.08188,-7.26228 -28.49367,-18.8801 -43.36752,-32.69159 -31.96934,-29.68594 -52.1072,-65.05206 -55.91382,-98.19591 -0.72946,-6.35129 -0.35906,-19.01202 0.72869,-24.90805 4.03971,-21.89667 14.50472,-40.475475 32.86811,-58.35165 C 217.72465,54.7093 232.46847,44.513725 253.5,33.962327 276.39482,22.476126 308.20007,12.076274 328.25,9.5201714 c 6.67523,-0.8510041 37.87057,-2.9639113 56.44776,-3.8232912 13.08675,-0.6053921 25.4692,-0.3792902 28.39895,0.518561 2.07809,0.6368482 2.10085,0.7157238 2.62906,9.1078458 l 0.27211,4.323286 -27.62394,0.247865 c -26.8035,0.240503 -31.74283,0.482433 -43.87394,2.148961 -14.71269,2.021176 -34.06115,7.411712 -48.25,13.44259 C 283.77207,40.78965 267.32414,49.227707 253.5,57.417435 215.01534,80.21661 198.22964,100.78269 193.44312,131 c -0.90609,5.72011 -0.75679,19.8071 0.28084,26.5 3.79266,24.46312 15.78527,48.8137 33.85924,68.75 12.23357,13.49411 27.10718,26.42406 40.4168,35.13521 15.35856,10.05218 26.61824,14.88475 53.91714,23.14086 23.0682,6.97661 33.13032,10.37904 32.85053,11.10818 -1.25434,3.26876 -7.24736,10.25258 -9.54896,11.12764 -1.90993,0.72616 -6.42883,0.53203 -11.21871,-0.48193 z"
       id="path1958"
       transform="scale(0.26458333)" />
    <path
       style="fill:#ff0000;stroke-width:0.5"
       d="m 502,212.41013 c -4.34746,-0.31914 -10.81815,-1.20626 -17.75,-2.43351 -3.85,-0.68162 -12.625,-2.14864 -19.5,-3.26005 -36.41746,-5.88719 -53.60576,-12.56565 -69.75,-27.10113 -15.33126,-13.80351 -24.9912,-29.24554 -26.4867,-42.34071 -0.55945,-4.89868 0.10713,-8.88934 2.24229,-13.42412 5.87645,-12.48075 18.64498,-24.190302 39.26141,-36.005208 8.24436,-4.724698 7.53698,-4.568804 10.73549,-2.365906 1.51113,1.040755 2.74751,2.046605 2.74751,2.235222 0,0.188618 -3.54494,3.280962 -7.87764,6.871877 -4.3327,3.590915 -10.12645,8.535225 -12.875,10.987355 -2.74855,2.45213 -7.73385,6.64391 -11.07845,9.31507 -7.30666,5.83545 -11.04026,9.84248 -13.05076,14.0065 -2.0107,4.16444 -2.29424,6.54414 -1.33377,11.19405 3.01277,14.58578 11.16534,24.06028 30.71562,35.69615 9.01139,5.36337 16.69674,8.74463 30.5,13.41884 7.2875,2.46777 16.84375,5.72575 21.23611,7.23994 11.31426,3.9004 15.47771,4.56407 25.22581,4.02105 9.4774,-0.52794 20.30664,-0.52618 32.28808,0.005 5.95687,0.26421 9.95643,0.21848 11.82862,-0.13526 6.92245,-1.30796 21.9858,-8.02867 30.09698,-13.42817 8.48149,-5.646 17.70532,-15.39776 23.27364,-24.60572 3.37389,-5.57917 6.72421,-16.3026 7.28015,-23.30166 0.44363,-5.58514 0.90414,-6.99421 3.85267,-11.78851 6.06316,-9.85866 6.58426,-12.09035 4.05543,-17.36797 -1.77478,-3.7039 -7.77155,-9.71761 -12.50734,-12.542669 -7.38063,-4.402789 -18.81978,-8.468315 -29.13961,-10.356352 l -4.47604,-0.818903 1.58574,-2.002167 c 0.87216,-1.101193 2.38765,-2.339882 3.36775,-2.752642 1.63104,-0.686893 2.29033,-0.655509 7.78201,0.370441 12.04397,2.250043 17.60404,3.627776 22.5,5.575283 25.78755,10.257741 31.09065,32.069429 15.17838,62.428779 -6.31352,12.04569 -12.90246,20.96618 -22.92667,31.03949 -19.61951,19.71562 -38.15873,29.31149 -60.75171,31.445 -5.1805,0.48921 -11.14124,0.55536 -16.25,0.18035 z"
       id="path1997"
       transform="scale(0.26458333)" />
    <path
       style="fill:#ff0000;stroke-width:0.5"
       d="m 515.71779,119.1966 c 0.74793,-1.20813 2.16447,-3.84805 3.14787,-5.86649 1.62108,-3.32729 1.79001,-4.07414 1.80952,-8 0.0148,-2.97312 -0.32322,-5.58365 -1.07854,-8.33011 -0.60503,-2.2 -1.67319,-7.15 -2.37368,-11 -1.61028,-8.85028 -3.30358,-13.891955 -7.76948,-23.13306 -3.4294,-7.096307 -3.73732,-7.54264 -8.38184,-12.149673 -5.74561,-5.699245 -9.69711,-8.512829 -22.33101,-15.900344 -7.54475,-4.411696 -11.78003,-6.479045 -20.5,-10.006586 -6.04485,-2.445355 -12.28438,-4.732607 -13.86563,-5.082783 -1.58125,-0.350176 -2.875,-0.834843 -2.875,-1.077038 0,-0.891535 1.98501,-4.29175 3.97569,-6.810151 2.48725,-3.1466118 3.15084,-3.2203397 9.35947,-1.039888 13.84649,4.862841 49.31752,24.098605 57.23804,31.039908 1.65257,1.448262 4.11754,5.373654 7.89622,12.574499 4.92071,9.377146 8.318,19.047571 9.77869,27.835116 0.70512,4.24206 1.86289,21.78035 1.8532,28.07307 -0.0109,7.07757 -3.39713,9.757 -13.54735,10.71962 l -3.69604,0.35052 z"
       id="path2036"
       transform="scale(0.26458333)" />
    <path
       style="fill:#ff0000;stroke-width:0.5"
       d="m 477,551.67345 c -5.61494,-0.27475 -29.36504,-0.361 -56,-0.20338 -48.54416,0.28728 -84.13321,-0.33211 -115.25,-2.00581 l -5.5,-0.29584 0.16605,-6.8336 c 0.0913,-3.75848 0.24394,-6.91148 0.33914,-7.00668 0.40847,-0.40847 10.19486,-1.61256 18.74481,-2.30632 31.66957,-2.5697 89.65378,-2.03962 165.5,1.51297 21.30055,0.9977 25.91243,0.64438 33.62048,-2.57567 21.68577,-9.05927 35.21574,-37.35186 40.38972,-84.45912 0.87712,-7.98592 1.19219,-30.58809 0.53669,-38.5 -2.45788,-29.66626 -10.87635,-52.38505 -24.59405,-66.37157 -4.23966,-4.32275 -8.80351,-6.84553 -14.16967,-7.83267 -4.52898,-0.83312 -13.23273,-0.6538 -22.06334,0.45458 -16.40872,2.05955 -22.0938,1.85806 -28.13085,-0.99702 -6.28378,-2.97176 -8.38474,-6.60235 -8.94698,-15.46096 l -0.29879,-4.70763 22.2034,0.33352 c 25.61241,0.38472 31.17189,0.77949 39.00999,2.77001 10.72945,2.72478 14.67607,5.17949 24.9434,15.51418 8.0215,8.07412 11.73053,12.9383 15.74335,20.64646 6.00682,11.53842 10.57349,29.76677 12.3136,49.1511 0.79105,8.81208 0.79365,35.59606 0.005,45.5 -1.2885,16.16916 -3.37502,30.08129 -6.09186,40.61824 -3.3449,12.97282 -13.23952,35.44724 -18.93201,43.00174 -5.61851,7.45632 -12.17569,12.43349 -21.27926,16.1518 -8.5116,3.47653 -12.4902,4.06736 -28.50824,4.23353 -7.7,0.0799 -18.3875,-0.0695 -23.75,-0.33186 z"
       id="path2075"
       transform="scale(0.26458333)" />
    <path
       style="fill:#00ff00;stroke-width:0.5"
       d="m 471.39445,198.29868 c -2.39555,-0.52575 -8.02055,-2.23185 -12.5,-3.79136 -4.47945,-1.5595 -13.68468,-4.71188 -20.45606,-7.00528 -13.73078,-4.65049 -20.12004,-7.48029 -29.42674,-13.03311 -12.43066,-7.41671 -21.50601,-15.22547 -25.47526,-21.91984 -0.94248,-1.58955 -2.48711,-5.17587 -3.4325,-7.96959 -2.23211,-6.5961 -2.35536,-10.38616 -0.46598,-14.3295 2.29128,-4.78216 4.76654,-7.31205 17.48679,-17.87269 3.23108,-2.68252 10.6407,-8.92731 16.46582,-13.87731 5.82513,-4.95 10.89481,-9.183872 11.26596,-9.408603 1.27206,-0.770233 17.64681,8.592157 23.30924,13.327243 l 1.41572,1.18386 -5.91572,6.9605 c -10.6429,12.52255 -11.38964,13.75293 -11.06564,18.23229 0.27601,3.81577 1.82744,5.99285 7.85717,11.02577 10.32378,8.6171 19.36349,13.62196 28.42654,15.73844 4.8679,1.13679 6.99125,1.29947 22.86621,1.75186 36.25078,1.03304 46.329,-0.77557 59.5,-10.67769 9.43097,-7.09033 16.02616,-14.70409 18.02166,-20.80498 1.51893,-4.64388 0.25927,-9.99479 -3.10087,-13.17222 -0.78144,-0.73895 -3.89579,-2.73648 -6.92079,-4.43896 -7.04099,-3.96271 -9.63483,-6.08002 -10.87048,-8.873413 -1.19842,-2.709231 -0.95115,-4.90451 1.00162,-8.892491 l 1.36886,-2.795513 2.46969,0.326737 c 4.65804,0.61625 16.03219,3.800339 21.48994,6.015909 10.50793,4.265689 17.83234,9.839021 21.17689,16.114041 2.63275,4.93955 2.29056,6.75209 -2.7785,14.71748 -3.5973,5.6527 -4.38655,7.83892 -4.84468,13.41974 -0.72792,8.8675 -4.13244,18.70945 -8.99352,25.99888 -9.72901,14.58917 -21.96328,24.02699 -40.58478,31.30813 -9.48535,3.70884 -10.59155,3.88717 -21.18504,3.41513 -11.44715,-0.51007 -22.16644,-0.53314 -33.25,-0.0716 -7.38901,0.30772 -9.06929,0.22905 -12.85555,-0.6019 z"
       id="path2336"
       transform="scale(0.26458333)" />
    <path
       style="fill:#0000ff;stroke-width:0.5"
       d="m 351.5,292.17029 c -2.3375,-0.80717 -12.2375,-3.91818 -22,-6.91337 -20.85033,-6.39699 -30.60806,-9.71349 -38.5,-13.08553 -12.868,-5.4982 -27.51604,-14.90577 -40.81974,-26.21611 -5.93082,-5.04217 -20.38028,-19.41205 -24.90027,-24.76313 -12.17101,-14.40887 -21.81998,-32.1009 -26.70612,-48.96747 -9.18015,-31.68919 -3.87293,-59.657 15.64614,-82.451475 11.24133,-13.12769 32.16113,-27.650367 62.02999,-43.061666 23.44477,-12.096695 42.92857,-18.951118 63.75,-22.42733 13.79625,-2.303333 19.51204,-2.645291 48.375,-2.894123 L 416,21.151927 l -10e-4,4.674036 c -0.001,5.728473 -0.90901,25.276232 -1.2417,26.729349 -0.21119,0.922395 -0.73068,1.099364 -4.12458,1.405064 -6.09955,0.549406 -17.27375,2.560427 -24.90267,4.481734 -34.48,8.683622 -66.09617,26.04261 -83.94565,46.0907 -25.36381,28.48801 -24.216,59.55705 3.28548,88.93177 12.71671,13.58291 32.03509,25.7831 65.17987,41.16323 4.125,1.91412 11.26875,5.22823 15.875,7.36469 4.60625,2.13645 8.375,4.09085 8.375,4.3431 0,0.41539 -36.0193,44.54763 -37.93818,46.48333 -0.75166,0.75826 -1.12675,0.71019 -5.06182,-0.64864 z"
       id="path2523"
       transform="scale(0.26458333)" />
    <path
       style="fill:#0000ff;stroke-width:0.5"
       d="m 500.39849,121.93607 c -0.46833,-0.13769 -0.96632,-0.62964 -1.10666,-1.09321 -0.76673,-2.53276 -1.33481,-6.20403 -2.02509,-13.08726 -1.65202,-16.47338 -5.44315,-25.84945 -14.18176,-35.07376 -8.89498,-9.389373 -19.2603,-15.204346 -38.79945,-21.766599 -4.38045,-1.471184 -8.80242,-2.900516 -9.82658,-3.176295 -1.83342,-0.493688 -1.85854,-0.534076 -1.62963,-2.620182 0.64457,-5.873999 3.34316,-15.207897 6.38632,-22.089035 l 1.19435,-2.700638 3.67001,0.946441 c 2.0185,0.520542 8.35461,2.860043 14.08024,5.198889 17.31723,7.07387 36.76676,19.115187 43.8395,27.1413 2.73059,3.098654 3.98392,5.280494 7.51041,13.074411 3.5873,7.928293 4.68084,11.417383 6.26262,19.981783 0.68115,3.687995 1.72324,8.53304 2.31576,10.766765 1.19531,4.50616 1.40524,10.63601 0.4473,13.06132 -0.32585,0.825 -1.76097,3.55922 -3.18915,6.07604 -2.58528,4.55594 -2.60656,4.57726 -4.84668,4.85394 -4.06558,0.50214 -9.23417,0.76109 -10.10151,0.50609 z"
       id="path2562"
       transform="scale(0.26458333)" />
    <path
       style="fill:#0000ff;stroke-width:0.5"
       d="m 325.75,596.19471 c -12.48512,-0.30378 -21.04315,-1.05609 -22.85551,-2.00915 -1.99568,-1.04946 -4.81603,-15.01629 -4.1421,-20.51234 0.11284,-0.92027 0.47496,-6.45447 0.8047,-12.29822 0.39447,-6.99097 0.78651,-10.62461 1.14622,-10.62387 0.30068,6.3e-4 5.72169,0.22037 12.04669,0.48831 34.48553,1.46088 47.0901,1.67978 108,1.87554 36.3,0.11667 72.3,0.23419 80,0.26115 12.41866,0.0435 14.53652,-0.068 18.75,-0.98734 18.91274,-4.1264 30.53612,-13.50549 39.43965,-31.82449 2.88946,-5.94508 9.50731,-22.54097 10.99166,-27.5643 8.09897,-27.40865 10.34717,-77.99195 4.80226,-108.04823 -4.5965,-24.91538 -11.13076,-38.43235 -25.73357,-53.23328 -11.00978,-11.15915 -15.8032,-13.91197 -29.12076,-16.7238 -5.10232,-1.07729 -8.12381,-1.33677 -20.3116,-1.74429 -7.87471,-0.2633 -19.66139,-0.48361 -26.19264,-0.48956 -10.09348,-0.009 -11.875,-0.12078 -11.875,-0.74365 0,-2.69381 1.82178,-13.08208 3.26495,-18.61762 2.90239,-11.13261 7.29029,-19.89922 11.21295,-22.40242 1.73964,-1.11013 1.86453,-1.11853 6.81943,-0.45861 2.77604,0.36973 12.78854,1.13459 22.25,1.69968 30.59376,1.82722 41.70192,3.89058 54.20267,10.06822 32.55063,16.08592 61.61267,67.50708 70.2324,124.26628 2.98965,19.68625 2.74733,28.94344 -1.66031,63.42728 -1.79265,14.025 -3.74455,27.75 -4.33758,30.5 -2.76731,12.83278 -8.89714,26.75103 -17.41176,39.53472 -22.85805,34.31867 -48.96288,49.799 -91.9011,54.49794 -10.02823,1.09744 -32.45623,1.54488 -55.17165,1.10069 -10.3125,-0.20166 -23.025,-0.25896 -28.25,-0.12732 -5.225,0.13163 -27.9453,0.37145 -50.48955,0.53293 -22.54424,0.16148 -41.10674,0.33376 -41.24999,0.38283 -0.14325,0.0491 -6.11046,-0.0531 -13.26046,-0.22708 z"
       id="path2601"
       transform="scale(0.26458333)" />
  </g>
</svg>
